<svg version="1.1" id="Layer_1" xmlns="http://www.w3.org/2000/svg" xmlns:xlink="http://www.w3.org/1999/xlink" x="0px" y="0px" viewBox="0 0 500 500" style="width: 163px;" xml:space="preserve" data-imageid="chart-7-9" imageName="Chart 7" class="illustrations_image">
<style type="text/css">
	.st0_chart-7-9{fill:#E5E5E5;}
	.st1_chart-7-9{fill:#FFA75F;}
	.st2_chart-7-9{fill:#EF8A3F;}
	.st3_chart-7-9{fill:#FFB37B;}
	.st4_chart-7-9{fill:#68E1FD;}
	.st5_chart-7-9{opacity:0.19;fill:#662D91;enable-background:new    ;}
	.st6_chart-7-9{opacity:0.53;fill:#E5E5E5;enable-background:new    ;}
	.st7_chart-7-9{fill:#ED7E7E;}
	.st8_chart-7-9{fill:#E26D6D;}
	.st9_chart-7-9{fill:#FC9D9D;}
	.st10_chart-7-9{fill:#662D91;}
	.st11_chart-7-9{fill:#31BE44;}
</style>
<path id="Base_chart-7-9" class="st0_chart-7-9" d="M287.6,158.9L19.5,331.4c-3.2,2.1-4.1,6.3-2,9.5c0.6,0.9,1.4,1.6,2.3,2.2l181,105.1&#10;&#9;c5.7,3.3,12.7,3.1,18.2-0.4L484.8,277c3.2-2,4.1-6.3,2.1-9.4c0,0,0,0,0,0c-0.6-0.9-1.4-1.7-2.3-2.2L299.6,158.6&#10;&#9;C295.9,156.4,291.3,156.6,287.6,158.9z"/>
<g id="Bar_Chart_chart-7-9">
	<polygon class="st1_chart-7-9" points="343.9,150.9 375,132.9 375,276.6 345.9,293.3 &#9;"/>
	<polygon class="st2_chart-7-9" points="343.9,150.9 312.7,132.9 313.4,274.6 345.9,293.3 &#9;"/>
	<polygon class="st3_chart-7-9" points="312.7,132.9 343.9,114.7 375,132.9 343.9,150.9 &#9;"/>
	<polygon class="st4_chart-7-9 targetColor" points="287.9,208.3 319,190.3 319,308.8 289.6,325.4 &#9;" style="fill: rgb(47, 143, 246);"/>
	<polygon class="st4_chart-7-9 targetColor" points="287.9,208.3 256.7,190.3 257.3,306.5 289.6,325.4 &#9;" style="fill: rgb(47, 143, 246);"/>
	<polygon class="st4_chart-7-9 targetColor" points="256.7,190.3 287.9,172.1 319,190.3 287.9,208.3 &#9;" style="fill: rgb(47, 143, 246);"/>
	<polygon class="st4_chart-7-9 targetColor" points="287.9,208.3 319,190.3 319,308.8 289.6,325.4 &#9;" style="fill: rgb(47, 143, 246);"/>
	<polygon class="st5_chart-7-9" points="287.9,208.3 256.7,190.3 257.3,306.5 289.6,325.4 &#9;"/>
	<polygon class="st6_chart-7-9" points="256.7,190.3 287.9,172.1 319,190.3 287.9,208.3 &#9;"/>
	<polygon class="st4_chart-7-9 targetColor" points="227.1,263.6 258.3,245.6 259.8,343 227.1,362.1 &#9;" style="fill: rgb(47, 143, 246);"/>
	<polygon class="st4_chart-7-9 targetColor" points="227.1,263.6 196,245.6 196,343.8 227.1,362.1 &#9;" style="fill: rgb(47, 143, 246);"/>
	<polygon class="st5_chart-7-9" points="227.1,263.6 196,245.6 196,343.8 227.1,362.1 &#9;"/>
	<polygon class="st4_chart-7-9 targetColor" points="196,245.6 227.1,227.3 258.3,245.6 227.1,263.6 &#9;" style="fill: rgb(47, 143, 246);"/>
	<polygon class="st6_chart-7-9" points="196,245.6 227.1,227.3 258.3,245.6 227.1,263.6 &#9;"/>
	<polygon class="st7_chart-7-9" points="163.3,327.6 194.4,309.6 195.5,379.7 163.3,398 &#9;"/>
	<polygon class="st8_chart-7-9" points="163.3,327.6 132.1,309.6 132.1,379.8 163.3,398 &#9;"/>
	<polygon class="st9_chart-7-9" points="132.1,309.6 163.3,291.4 194.4,309.6 163.3,327.6 &#9;"/>
</g>
<g id="Plant_chart-7-9">
	<path class="st4_chart-7-9 targetColor" d="M70.2,321.1c0,0-0.8,25,12.5,25.9s17.1-15.2,16.8-25.9" style="fill: rgb(47, 143, 246);"/>
	<ellipse class="st10_chart-7-9" cx="84.8" cy="321.1" rx="14.7" ry="8"/>
	<path class="st11_chart-7-9" d="M81.2,319c0,0,11-9,6.4-14.4s-9-4.7-7.3-10s9.6-8,3.3-14S72.1,278.7,73,271s-2.7-15.2-9.2-12.1&#10;&#9;&#9;c-6.5,3.1-6.5,15.8-1.9,18.8s11.9,3.6,5.6,8s-11.7,5-5.7,11.8s16.3,3.5,13.8,9.4S74.6,315.1,81.2,319z"/>
	<path class="st11_chart-7-9" d="M81.9,320.2c0,0,14.2,0.5,14.3-6.5s-3.6-9.4,1.1-12.4s12.5,0.4,11.8-8.3s-7.3-9-1.5-14.2s8.1-13.1,1.1-15.2&#10;&#9;&#9;s-15.3,7.4-13.9,12.8s6.5,10.7-1.1,9.7s-12.2-4-12,5.1s9.9,13.5,4.1,16.2S79.5,313,81.9,320.2z"/>
	<path class="st11_chart-7-9" d="M82.7,320.2c0,0-5.2-16-14.8-13.5S82.7,320.2,82.7,320.2z"/>
</g>
<g id="Line_Chart_chart-7-9">
	<path class="st9_chart-7-9" d="M87.6,169.8v90.6c0,4.3,3.5,7.8,7.8,7.8c1.5,0,2.9-0.4,4.1-1.2l142.1-89.3c7.3-4.6,11.7-12.6,11.7-21.1v-77&#10;&#9;&#9;c0-4.3-3.5-7.8-7.8-7.8c-1.4,0-2.7,0.4-3.9,1.1c-31.3,18-116.2,67-146.6,84.4C90.4,159.7,87.6,164.5,87.6,169.8z"/>
	<path class="st10_chart-7-9" d="M112.2,241.6l-0.5-0.8l0.3,0.4l-0.3-0.4c1.1-1.3,24.9-44,34-60.4l0.2-0.3l47,6.6l28.8-65.4l0.9,0.4&#10;&#9;&#9;l-29.1,66.1l-47-6.6C136.2,199.4,113.1,241.1,112.2,241.6z"/>
	<ellipse class="st10_chart-7-9" cx="222.1" cy="122.2" rx="2.9" ry="3.4"/>
	<path class="st10_chart-7-9" d="M222.1,126.1c-2.1,0.3-4.1-1.3-4.3-3.4c-0.3-2.1,1.3-4.1,3.4-4.3c2.1-0.3,4.1,1.3,4.3,3.4c0,0.2,0,0.3,0,0.5&#10;&#9;&#9;C225.6,124.2,224.1,126,222.1,126.1z M222.1,119.3c-1.6-0.3-3.1,0.8-3.4,2.4s0.8,3.1,2.4,3.4s3.1-0.8,3.4-2.4c0-0.2,0-0.3,0-0.5&#10;&#9;&#9;C224.6,120.7,223.5,119.5,222.1,119.3z"/>
	<ellipse class="st10_chart-7-9" cx="192.2" cy="185.9" rx="2.9" ry="3.4"/>
	<path class="st10_chart-7-9" d="M192.2,189.8c-2.1,0.2-4.1-1.3-4.3-3.4c-0.2-2.1,1.3-4.1,3.4-4.3c2.1-0.2,4.1,1.3,4.3,3.4c0,0.2,0,0.3,0,0.5&#10;&#9;&#9;C195.8,188,194.2,189.7,192.2,189.8z M192.2,183.1c-1.6-0.3-3.1,0.8-3.3,2.4c-0.3,1.6,0.8,3.1,2.4,3.3c1.6,0.3,3.1-0.8,3.3-2.4&#10;&#9;&#9;c0-0.2,0-0.3,0-0.5C194.8,184.5,193.7,183.2,192.2,183.1z"/>
	<ellipse class="st10_chart-7-9" cx="146" cy="181.3" rx="2.9" ry="3.4"/>
	<path class="st10_chart-7-9" d="M146,185.2c-2.1,0.2-4.1-1.3-4.3-3.4c-0.2-2.1,1.3-4.1,3.4-4.3c2.1-0.2,4.1,1.3,4.3,3.4c0,0.2,0,0.3,0,0.5&#10;&#9;&#9;C149.6,183.3,148,185.1,146,185.2z M146,178.4c-1.6-0.3-3.1,0.8-3.3,2.4c-0.3,1.6,0.8,3.1,2.4,3.3c1.6,0.3,3.1-0.8,3.3-2.4&#10;&#9;&#9;c0-0.2,0-0.3,0-0.5C148.6,179.8,147.5,178.6,146,178.4L146,178.4z"/>
	<ellipse class="st10_chart-7-9" cx="113.6" cy="241.2" rx="2.9" ry="3.4"/>
	<path class="st10_chart-7-9" d="M113.6,245.1c-2.1,0.2-4.1-1.3-4.3-3.4s1.3-4.1,3.4-4.3c2.1-0.2,4.1,1.3,4.3,3.4c0,0.2,0,0.3,0,0.5&#10;&#9;&#9;C117.2,243.2,115.6,244.9,113.6,245.1z M113.6,238.3c-1.6-0.3-3.1,0.8-3.3,2.4c-0.3,1.6,0.8,3.1,2.4,3.3c1.6,0.3,3.1-0.8,3.3-2.4&#10;&#9;&#9;c0-0.2,0-0.3,0-0.5C116.2,239.7,115.1,238.4,113.6,238.3z"/>
</g>
<g id="Character_chart-7-9">
	<path class="st10_chart-7-9" d="M350.8,112.6c0,0-2.1-4.8-2.6-4.8s-14.6,0.5-14.6,0.5l6.6,9.8"/>
	<path class="st11_chart-7-9" d="M371.7,147.2c-0.8-0.6-1.5,0.8-0.8,1.3s-3,2.6-3.4,2.8l-4.3,2.4c-0.9,0.5-0.1,1.8,0.8,1.3l4.1-2.2&#10;&#9;&#9;c1.1-0.5,2.2-1.1,3.1-1.8C372.4,150,373.1,148.2,371.7,147.2z"/>
	<path class="st4_chart-7-9 targetColor" d="M367.6,154.6c0,0,0.7,7,2.5,9.5s5.8,4.2,5.6,5.6s-0.3,2.2-2.5,2.2s-9-4-9-4l-1.4-5.2l-0.7,5.1l-1.7-0.7v-13.2&#10;&#9;&#9;L367.6,154.6z" style="fill: rgb(47, 143, 246);"/>
	<path class="st4_chart-7-9 targetColor" d="M355.7,160.4c0,0,0.7,7,2.5,9.4s5.8,4.2,5.6,5.6s-0.3,2.2-2.5,2.2s-9-4-9-4l-1.4-5.2l-0.7,5.1l-1.7-0.7v-13.2&#10;&#9;&#9;L355.7,160.4z" style="fill: rgb(47, 143, 246);"/>
	<path class="st10_chart-7-9" d="M359.2,160.4c4.6,1.4,9.5,0.2,12.9-3.2c0.9-9.7,2-25.8,0.3-29.1c-2.5-4.7-21.7-15.6-21.7-15.6l-11.8,4.9&#10;&#9;&#9;l21.4,20.5L359.2,160.4z"/>
	<path class="st10_chart-7-9" d="M327.9,105.8c0,0-4.4,16.2-0.5,19.8c3.9,3.6,18.4,12.8,18.4,12.8v27.9c4.1,1.8,8.8,0.6,11.6-2.9l4.8-26.6&#10;&#9;&#9;l-18.4-22.2"/>
	<path class="st3_chart-7-9" d="M363.1,51.5l-0.4,0.8l-0.2-0.1c0.3-1.1,0.5-2.2,0.8-3.3s-1.3-1.2-1.5-0.2s-0.5,1.9-0.7,2.9l-0.5-0.2l0.2-4.1&#10;&#9;&#9;v-0.7c0.1-0.4-0.2-0.8-0.6-0.9c0,0,0,0,0,0c-0.4-0.1-0.8,0.2-1,0.6c-0.1,0.1-0.1,0.2-0.2,0.4c-0.2,1.5-0.4,3-0.5,4.6h-0.2&#10;&#9;&#9;c-0.1-1-0.2-2-0.4-2.9c0-0.1-0.1-0.3-0.2-0.4c-0.2-0.8-1.5-0.6-1.5,0.3l0.3,4.8c-0.3-0.8-0.7-1.5-1.5-1.7c-0.4-0.1-0.8,0.2-0.9,0.7&#10;&#9;&#9;c0,0.1,0,0.3,0.1,0.4c0.6,1.1,1,2.3,1.4,3.6l0.4,7.2c0,0.3,0.3,0.6,0.6,0.6c0.1,0.4,0.5,0.7,0.9,0.6c0.3-0.1,0.5-0.3,0.6-0.7&#10;&#9;&#9;c0.3,0.4,0.9,0.6,1.2,0.1v-0.1c0.3,0.6,1.4,0.6,1.5-0.2c0.1-1.5,0.2-3,0.2-4.4v-0.1c1.1-2.4,2.3-4.7,3.5-7&#10;&#9;&#9;C365,51.2,363.6,50.7,363.1,51.5z"/>
	<path class="st10_chart-7-9" d="M362.9,52.9c-1.4-1.5-3.3-2.2-5.3-1.9c-0.1,0-0.1,0.1-0.1,0.2c0,0,0,0,0,0c0,0,0.1,0.1,0.1,0.1&#10;&#9;&#9;c1.8-0.3,3.7,0.3,5,1.7C362.8,53.2,363.1,53,362.9,52.9z"/>
	<path class="st10_chart-7-9" d="M357,53c-0.3,0-0.3,0.4,0,0.5c1.5,0.3,2.5,1.8,2.3,3.3c0,0.1,0.2,0.2,0.3,0.2c0.1,0,0.2-0.1,0.2-0.2&#10;&#9;&#9;C360,55,358.8,53.3,357,53z"/>
	<path class="st4_chart-7-9 targetColor" d="M345,80.7c0,0,6.2-3,7.4-7s2.4-16.7,2.4-16.7c2.9-0.2,5.8,0.4,8.3,1.8c0,0-0.5,15.5-2.8,20.2s-9.5,11-9.3,11&#10;&#9;&#9;s-2.2,19.4-2.2,19.4s-12.2,3.4-19.1,0c0,0,2-18.7,3.5-21.4S345,80.7,345,80.7z" style="fill: rgb(47, 143, 246);"/>
	<path class="st3_chart-7-9" d="M349.9,115.4c-1.1-1-2.3-1.8-3.6-2.6l-3.5-1.5c-1-1-2-2-2.9-3c-0.7-0.7-1.7,0.3-1.1,1.1s1.5,1.6,2.3,2.4&#10;&#9;&#9;c-0.2,0.1-0.4,0.3-0.5,0.6c-0.4-0.1-0.8,0.1-0.9,0.5c0,0,0,0,0,0l0,0c-0.1-0.1-0.3-0.1-0.5-0.1c-0.6-0.6-1.7,0.1-1.2,0.9&#10;&#9;&#9;c1.1,1.8,2.2,3.6,3.1,5.5c0.5,0.9,1.8,0.1,1.3-0.8l-0.4-0.8c0.9,0.9,1.7,1.8,2.4,2.8c0.6,0.8,1.9,0,1.3-0.8&#10;&#9;&#9;c-0.2-0.3-0.5-0.6-0.7-0.9c0.4,0.3,0.8,0.7,1.1,1s0.7,0.8,1,1.2c0.5,0.7,1.7-0.2,1.2-0.9l-0.1-0.2l0,0c-0.5-0.6-1.5-1.8-2-2.4&#10;&#9;&#9;c0.6,0.5,1.8,1.5,2.5,2s1.5-0.7,0.8-1.3c-0.5-0.3-2.2-2.2-2.7-2.6s0.4,0.5,0,0c0.7,0.3,1.5,0.6,2.2,0.9S350.5,115.9,349.9,115.4z"/>
	<path class="st4_chart-7-9 targetColor" d="M340.7,82.1c0,0-9.3,3-11.2,5.7s-5.5,11.7-5.6,14.6s13.3,13.7,13.3,13.7s7.5-4.8,8.1-5.9s-8.8-9.9-8.8-9.9" style="fill: rgb(47, 143, 246);"/>
	<path class="st10_chart-7-9" d="M335.8,68c0,0-5.4,3-5.5,14c0,0-0.7,6.1,1.5,8.1s7.3,1.9,7.6,0S337,75.6,337,75.6"/>
	<path class="st10_chart-7-9" d="M346.4,70.9c0,0,2.4,16.4,0.2,17.7s-5.7,0.9-4.4-6.6"/>
	<path class="st3_chart-7-9" d="M346.4,70.9c0,0,1.5,12.6-3.9,13c-6.1,0.4-7.8-4-7.3-6.7S338.1,67,346.4,70.9z"/>
	<path class="st10_chart-7-9" d="M337,75.6c0,0,2.2,1,2.9-1.8c0.7,0.7,1.8,0.8,2.6,0.3c0.6-0.4,1.1-0.9,1.5-1.4c0,0,0.6,1.4,3,0.6&#10;&#9;&#9;s2.8-4-1.8-6.2s-11.2-0.3-12.4,5.6s0,9.4,4.8,10.7C336.9,80.8,336.7,78.2,337,75.6z"/>
	<path class="st10_chart-7-9" d="M342.8,106.6c-1.3-1.4-2.9-2.7-4.1-4.3c-1.6-1.9-1.8-4.6-0.6-6.8c-0.8,0.3-1.4,0.9-1.8,1.7&#10;&#9;&#9;c-0.7,1.7-0.4,3.6,0.9,4.9c2,2.6,4.2,5,6.5,7.2c0.3,0.3,0.8,0.3,1.1-0.1c0,0,0,0,0,0c0.1-0.1,0.1-0.2,0.2-0.3&#10;&#9;&#9;C344.2,108.2,343.5,107.3,342.8,106.6z"/>
	<path class="st5_chart-7-9" d="M360.7,129.8c-3.3-3.2-6.8-6.2-10.2-9.3c-0.7-0.7-1.8,0.4-1.1,1.1l8.2,7.5c1,0.8,1.9,1.7,2.8,2.6&#10;&#9;&#9;c2.2,2.7,1.3,5.3,0.8,8.4c-1,7.1-2.1,14.2-3.2,21.3c-0.1,1,1.3,1.4,1.5,0.4c1.3-8.4,3.2-17,3.8-25.5&#10;&#9;&#9;C363.7,133.7,362.7,131.3,360.7,129.8z"/>
</g>
</svg>