<svg version="1.1" id="Layer_1" xmlns="http://www.w3.org/2000/svg" xmlns:xlink="http://www.w3.org/1999/xlink" x="0px" y="0px" viewBox="0 0 500 500" style="width: 163px;" xml:space="preserve" data-imageid="marketing-2-89" imageName="Marketing 2" class="illustrations_image">
<style type="text/css">
	.st0_marketing-2-89{fill:#709FF9;}
	.st1_marketing-2-89{fill:url(#Shadow_00000114064803032322810360000005877548522364645803_);}
	.st2_marketing-2-89{fill:#CE4242;}
	.st3_marketing-2-89{fill:#FFDDDC;}
	.st4_marketing-2-89{fill:#F2F2F2;}
	.st5_marketing-2-89{fill:url(#Announcer_Shadow_00000127757296279998364250000003575538987042010797_);}
	.st6_marketing-2-89{fill:#68E1FD;}
	.st7_marketing-2-89{opacity:0.27;fill:#999999;enable-background:new    ;}
	.st8_marketing-2-89{opacity:0.51;fill:#F2F2F2;enable-background:new    ;}
	.st9_marketing-2-89{fill:#8C0000;}
	.st10_marketing-2-89{fill:#F7D600;}
	.st11_marketing-2-89{fill:#05C69F;}
</style>
<path id="Base_marketing-2-89" class="st0_marketing-2-89" d="M465.8,290.5C417.6,316.4,275.7,398.3,231,424.1c-8.4,4.9-18.8,4.9-27.3-0.1L33.6,324.7&#10;&#9;c-6.8-4-4.6-11.4,2.2-15.3l237.3-137.9c2.5-1.4,5.5-1.4,8,0l184.8,105.1c3.8,2.2,5.1,7,3,10.8C468.2,288.7,467.1,289.8,465.8,290.5z&#10;&#9;"/>
<linearGradient id="Shadow_00000114062539776868430100000010706145709181786283_-marketing-2-89" gradientUnits="userSpaceOnUse" x1="141.491" y1="123.5905" x2="170.1694" y2="172.5125" gradientTransform="matrix(1 0 0 -1 0 502)">
	<stop offset="2.924843e-03" style="stop-color:#F2F2F2;stop-opacity:0"/>
	<stop offset="0.9869" style="stop-color:#29ABE2"/>
</linearGradient>
<polygon id="Shadow_00000177473406425782578750000013070906912656850858__marketing-2-89" style="fill:url(#Shadow_00000114062539776868430100000010706145709181786283_);" points="&#10;&#9;126.5,316.3 76.1,347.2 175.5,405.3 227,375.3 "/>
<g id="Smartphone_marketing-2-89">
	<path class="st2_marketing-2-89" d="M118.7,314.7l167.2-95.9c3.6-2.1,8.1-2.1,11.7,0l89.2,52.3c3.3,1.9,4.4,6.1,2.5,9.4c-0.6,1-1.5,1.9-2.5,2.5&#10;&#9;&#9;l-165.4,95.7c-4.8,2.8-10.8,2.8-15.6-0.1l-87.2-51.9c-3.3-1.9-4.3-6.2-2.4-9.4C116.8,316.1,117.6,315.2,118.7,314.7z"/>
	<path class="st3_marketing-2-89" d="M118.7,307.1l167.2-95.9c3.6-2.1,8.1-2.1,11.7,0.1l89.2,52.2c3.3,1.9,4.4,6.1,2.5,9.4c-0.6,1-1.5,1.9-2.5,2.5&#10;&#9;&#9;L221.4,371c-4.8,2.8-10.8,2.8-15.6-0.1L118.6,319c-3.3-1.9-4.3-6.2-2.4-9.4C116.8,308.5,117.6,307.7,118.7,307.1z"/>
	<path class="st4_marketing-2-89" d="M281.8,223.2c0.9,0.3,85.4,49.6,85.4,49.6l-141,82.6L141,306.2L281.8,223.2z"/>
	<path class="st2_marketing-2-89" d="M189.7,347.5c1-0.6,1.4-1.9,0.8-3c0-0.1-0.1-0.1-0.1-0.2c-0.9-1.2-2.9-2.3-4.1-3.1c-1.4-0.9-2.9-1.7-4.4-2.5&#10;&#9;&#9;l-11.4-6.6l-9.3-5.5c-1.2-0.8-2.8-0.9-4.1-0.5c-1,0.3-1.8,1-2.4,1.8c-0.6,0.9-0.3,2.2,0.7,2.7c0.1,0,0.1,0.1,0.2,0.1l17.2,9.9&#10;&#9;&#9;l7.4,4.3l4.3,2.5c1.3,0.8,2.9,1,4.4,0.4C189.1,347.9,189.4,347.8,189.7,347.5z"/>
	<ellipse class="st2_marketing-2-89" cx="147.2" cy="321.9" rx="3" ry="2.5"/>
</g>
<linearGradient id="Announcer_Shadow_00000029036556890114133970000016587620124609039777_-marketing-2-89" gradientUnits="userSpaceOnUse" x1="240.0734" y1="-317.5061" x2="268.5833" y2="-268.8661" gradientTransform="matrix(1 0 0 -1 0 4)">
	<stop offset="0" style="stop-color:#F2F2F2;stop-opacity:0"/>
	<stop offset="0.99" style="stop-color:#999999"/>
</linearGradient>
<polygon id="Announcer_Shadow_marketing-2-89" style="fill:url(#Announcer_Shadow_00000029036556890114133970000016587620124609039777_);" points="&#10;&#9;272.2,287.2 215.9,314.4 232.9,324.3 284.3,294.4 "/>
<g id="Announcer_marketing-2-89">
	<path class="st6_marketing-2-89 targetColor" d="M287.9,285.2V180c0-4.7-3.2-9.1-7.8-9.8c-5-0.7-9.6,2.7-10.4,7.7c-0.1,0.4-0.1,0.8-0.1,1.3v109&#10;&#9;&#9;c0,4.5,3.6,8.2,8.2,8.3c1.7,0,3.3-0.5,4.7-1.4l0.2-0.1C285.9,292.8,287.9,289.1,287.9,285.2z" style="fill: rgb(105, 147, 255);"/>
	<path class="st7_marketing-2-89" d="M287.9,218v-38c0-4.7-3.2-9.1-7.8-9.8c-5-0.7-9.6,2.7-10.4,7.7c-0.1,0.4-0.1,0.8-0.1,1.3v60.6&#10;&#9;&#9;C276.4,233.1,282.5,225.8,287.9,218z"/>
	<path class="st6_marketing-2-89 targetColor" d="M184.2,174c0,0,92.2-5.9,98.1-3.1s8.3,12.5,6,26.1c-2.2,13.4-46.2,68.4-46.2,68.4" style="fill: rgb(105, 147, 255);"/>
	<path class="st8_marketing-2-89" d="M247.5,202.6c13.4-8.2,27.3-15.4,40.8-23.4c-0.9-3.4-2.3-5.9-4.3-7.5c-25.7,12.6-51,25.9-76.5,38.7l7.7,12.2&#10;&#9;&#9;C226,216,236.7,209.2,247.5,202.6z"/>
	<path class="st8_marketing-2-89" d="M244.2,214.1c14.9-9.5,30.4-18.1,45-28.1c0-0.6,0-1.2-0.1-1.8c-13,7.7-26.4,14.6-39.2,22.5&#10;&#9;&#9;c-10.8,6.6-21.4,13.4-32.2,19.9l1.9,3C227.9,224.5,236,219.3,244.2,214.1z"/>
	<path class="st9_marketing-2-89" d="M155.8,203.6c0.3-1,9.7-43.9,52.3-25.6c38.5,16.5,39.7,65.6,37.1,77.6c-2.1,9.8-12.1,23.1-31.4,27.9"/>
	
		<ellipse transform="matrix(0.9176 -0.3975 0.3975 0.9176 -75.7911 96.9659)" class="st2_marketing-2-89" cx="196" cy="231.3" rx="39.3" ry="55.2"/>
	<path class="st4_marketing-2-89" d="M237.4,233.8l-41.8,10.9l-9.1-19.4l37.8-23.5C224.3,201.8,235.1,218.4,237.4,233.8z"/>
	
		<ellipse transform="matrix(0.8915 -0.4531 0.4531 0.8915 -85.5848 112.3479)" class="st10_marketing-2-89" cx="191.7" cy="234.8" rx="8.6" ry="10.8"/>
</g>
<g id="Bubbles_marketing-2-89">
	<path class="st9_marketing-2-89" d="M306.8,126.5c-0.1,0.7-1.5,10.9-1.5,10.9l-2.9,1.5l1.2-13.7"/>
	
		<ellipse transform="matrix(0.2929 -0.9561 0.9561 0.2929 136.5744 382.4993)" class="st9_marketing-2-89" cx="326.9" cy="98.9" rx="33.8" ry="45"/>
	<ellipse transform="matrix(0.2929 -0.9561 0.9561 0.2929 134.1026 378.5155)" class="st2_marketing-2-89" cx="323" cy="98.6" rx="33.8" ry="45"/>
	<path class="st2_marketing-2-89" d="M305.2,124.4l-2.8,14.5c0,0-12-24.7-9-27.2S306.3,118.3,305.2,124.4z"/>
	<path class="st6_marketing-2-89 targetColor" d="M443.7,189.1l-76-43.6c-1.5-0.9-3.5-0.3-4.4,1.2c-0.3,0.5-0.4,1-0.4,1.6v28.1c0,2.8,1.5,5.3,3.9,6.7l73.8,41.3&#10;&#9;&#9;c1.5,0.9,3.5,0.3,4.4-1.2c0.3-0.5,0.4-1,0.4-1.6v-29.7C445.3,190.7,444.7,189.7,443.7,189.1z" style="fill: rgb(105, 147, 255);"/>
	<polyline class="st6_marketing-2-89 targetColor" points="438.3,218.4 438.3,234.9 424.5,214.4 &#9;" style="fill: rgb(105, 147, 255);"/>
	<path class="st4_marketing-2-89" d="M372.1,161.7l13.6,7.6l21.7,12.1l5,2.8c1.7,0.9,3.2-1.6,1.5-2.6l-13.7-7.6l-21.7-12.1l-5-2.8&#10;&#9;&#9;C371.9,158.2,370.4,160.8,372.1,161.7L372.1,161.7z"/>
	<path class="st4_marketing-2-89" d="M370.3,172.9l20.7,11.5l32.9,18.3l7.5,4.2c1.7,0.9,3.2-1.6,1.5-2.6l-20.7-11.5l-32.9-18.3l-7.5-4.2&#10;&#9;&#9;c-0.7-0.4-1.6-0.2-2.1,0.5C369.4,171.6,369.6,172.5,370.3,172.9L370.3,172.9z"/>
	<path class="st11_marketing-2-89" d="M61.6,169.6l76.1-43.6c1.5-0.9,3.5-0.3,4.4,1.2c0.3,0.5,0.4,1,0.4,1.6v28.1c0,2.8-1.5,5.3-3.9,6.7l-73.8,41.3&#10;&#9;&#9;c-1.5,0.9-3.5,0.3-4.4-1.2c-0.3-0.5-0.4-1-0.4-1.6v-29.7C60,171.2,60.6,170.2,61.6,169.6z"/>
	<polyline class="st11_marketing-2-89" points="67,198.9 67,215.4 80.7,194.9 &#9;"/>
	<path class="st4_marketing-2-89" d="M130.7,143.7l-13.6,7.6l-21.7,12.1l-5,2.8c-1.7,0.9-0.2,3.5,1.5,2.6l13.6-7.6l21.8-12.2l5-2.8&#10;&#9;&#9;C133.9,145.3,132.4,142.7,130.7,143.7L130.7,143.7z"/>
	<path class="st4_marketing-2-89" d="M132.4,154.9l-20.6,11.5L79,184.8l-7.6,4.2c-1.7,0.9-0.2,3.5,1.5,2.6L93.6,180l32.9-18.3l7.5-4.2&#10;&#9;&#9;C135.6,156.6,134.1,154,132.4,154.9L132.4,154.9z"/>
</g>
</svg>