<?xml version="1.0" encoding="UTF-8" standalone="no"?>
<!DOCTYPE svg PUBLIC "-//W3C//DTD SVG 1.1//EN" "http://www.w3.org/Graphics/SVG/1.1/DTD/svg11.dtd">
<svg width="100%" height="100%" viewBox="0 0 1861 1264" version="1.1" xmlns="http://www.w3.org/2000/svg" xmlns:xlink="http://www.w3.org/1999/xlink" xml:space="preserve" xmlns:serif="http://www.serif.com/" style="fill-rule:evenodd;clip-rule:evenodd;stroke-linejoin:round;stroke-miterlimit:2;">
    <g id="_3224657" transform="matrix(1.00804,0,0,1.00804,-715.408,115.82)">
        <path d="M1861,11.904C1861,5.334 1855.67,0 1849.1,0L11.904,0C5.334,0 0,5.334 0,11.904L0,1252.1C0,1258.67 5.334,1264 11.904,1264L1849.1,1264C1855.67,1264 1861,1258.67 1861,1252.1L1861,11.904Z" style="fill:none;"/>
    </g>
    <g transform="matrix(2.59902,0,0,2.59902,-118.812,-68.4903)">
        <path d="M179.06,89.93C179.971,91.51 180.451,93.302 180.451,95.126C180.451,100.831 175.756,105.526 170.051,105.526C164.346,105.526 159.651,100.831 159.651,95.126C159.651,91.416 161.637,87.976 164.85,86.12C169.793,83.271 176.205,84.99 179.06,89.93Z" style="fill:rgb(64,123,255);fill-rule:nonzero;"/>
    </g>
    <g transform="matrix(2.59902,0,0,2.59902,-118.812,-68.4903)">
        <path d="M179.06,89.93C179.971,91.51 180.451,93.302 180.451,95.126C180.451,100.831 175.756,105.526 170.051,105.526C164.346,105.526 159.651,100.831 159.651,95.126C159.651,91.416 161.637,87.976 164.85,86.12C169.793,83.271 176.205,84.99 179.06,89.93Z" style="fill:white;fill-opacity:0.6;fill-rule:nonzero;"/>
    </g>
    <g transform="matrix(2.59902,0,0,2.59902,-118.812,-68.4903)">
        <path d="M167.43,94.22C167.75,94.78 168.43,94.74 169.18,94.55L168,92.49C167.24,93.09 167.14,93.71 167.43,94.22Z" style="fill:white;fill-opacity:0.3;fill-rule:nonzero;"/>
    </g>
    <g transform="matrix(2.59902,0,0,2.59902,-118.812,-68.4903)">
        <path d="M171.08,95.65L172.27,97.65C173.04,97.03 173.17,96.43 172.88,95.93C172.59,95.43 171.89,95.44 171.08,95.65Z" style="fill:white;fill-opacity:0.3;fill-rule:nonzero;"/>
    </g>
    <g transform="matrix(2.59902,0,0,2.59902,-118.812,-68.4903)">
        <path d="M165.61,87.44C162.866,89.024 161.17,91.962 161.17,95.13C161.17,100.002 165.178,104.01 170.05,104.01C174.921,104.01 178.93,100.002 178.93,95.13C178.93,93.572 178.519,92.04 177.74,90.69C175.304,86.472 169.829,85.004 165.61,87.44ZM173,99L173.75,100.3L172.8,100.85L172.05,99.56C171.015,100.124 169.833,100.361 168.66,100.24L168.5,98.77C169.468,98.891 170.45,98.731 171.33,98.31L170,96C168.54,96.43 166.92,96.81 166,95.2C165.31,94.02 165.58,92.49 167.28,91.28L166.53,89.97L167.53,89.42L168.27,90.7C169.11,90.25 170.047,90.009 171,90L171.2,91.45C170.429,91.442 169.665,91.599 168.96,91.91L170.31,94.25C171.78,93.82 173.42,93.41 174.31,95.02C175,96.21 174.71,97.73 173,99Z" style="fill:white;fill-opacity:0.3;fill-rule:nonzero;"/>
    </g>
    <g transform="matrix(2.59902,0,0,2.59902,-118.812,-68.4903)">
        <path d="M199.87,107.32C199.047,110.279 196.332,112.342 193.261,112.342C189.498,112.342 186.401,109.245 186.401,105.482C186.401,101.718 189.498,98.622 193.261,98.622C193.879,98.622 194.494,98.705 195.09,98.87C198.054,99.69 200.121,102.407 200.121,105.482C200.121,106.103 200.036,106.721 199.87,107.32Z" style="fill:rgb(64,123,255);fill-rule:nonzero;"/>
    </g>
    <g transform="matrix(2.59902,0,0,2.59902,-118.812,-68.4903)">
        <path d="M199.87,107.32C199.047,110.279 196.332,112.342 193.261,112.342C189.498,112.342 186.401,109.245 186.401,105.482C186.401,101.718 189.498,98.622 193.261,98.622C193.879,98.622 194.494,98.705 195.09,98.87C198.054,99.69 200.121,102.407 200.121,105.482C200.121,106.103 200.036,106.721 199.87,107.32Z" style="fill:white;fill-opacity:0.6;fill-rule:nonzero;"/>
    </g>
    <g transform="matrix(2.59902,0,0,2.59902,-118.812,-68.4903)">
        <path d="M192.47,103.83C192.36,104.24 192.67,104.52 193.13,104.83L193.55,103.31C192.92,103.22 192.58,103.45 192.47,103.83Z" style="fill:white;fill-opacity:0.3;fill-rule:nonzero;"/>
    </g>
    <g transform="matrix(2.59902,0,0,2.59902,-118.812,-68.4903)">
        <path d="M193.49,106.21L193.07,107.71C193.72,107.79 194.07,107.57 194.16,107.21C194.25,106.85 194,106.49 193.49,106.21Z" style="fill:white;fill-opacity:0.3;fill-rule:nonzero;"/>
    </g>
    <g transform="matrix(2.59902,0,0,2.59902,-118.812,-68.4903)">
        <path d="M194.82,99.84C194.31,99.698 193.782,99.626 193.252,99.626C190.038,99.626 187.392,102.272 187.392,105.486C187.392,108.701 190.038,111.346 193.252,111.346C195.879,111.346 198.199,109.581 198.9,107.05C199.043,106.539 199.115,106.01 199.115,105.479C199.115,102.856 197.349,100.538 194.82,99.84ZM192.82,108.64L192.56,109.64L191.86,109.45L192.12,108.45C191.377,108.221 190.718,107.776 190.23,107.17L190.86,106.42C191.25,106.928 191.777,107.313 192.38,107.53L192.85,105.83C191.97,105.34 191.04,104.76 191.37,103.57C191.631,102.788 192.367,102.258 193.191,102.258C193.402,102.258 193.611,102.292 193.81,102.36L194.08,101.36L194.78,101.56L194.51,102.5C195.115,102.695 195.662,103.039 196.1,103.5L195.51,104.26C195.156,103.897 194.73,103.611 194.26,103.42L193.78,105.14C194.66,105.63 195.61,106.21 195.28,107.39C195,108.3 194.18,108.87 192.81,108.64L192.82,108.64Z" style="fill:white;fill-opacity:0.3;fill-rule:nonzero;"/>
    </g>
    <g transform="matrix(2.59902,0,0,2.59902,-118.812,-68.4903)">
        <path d="M184.11,121.39C184.376,121.988 184.514,122.636 184.514,123.29C184.514,125.852 182.406,127.96 179.844,127.96C177.282,127.96 175.174,125.852 175.174,123.29C175.174,121.428 176.289,119.736 178,119C180.332,117.992 183.081,119.067 184.11,121.39Z" style="fill:rgb(64,123,255);fill-rule:nonzero;"/>
    </g>
    <g transform="matrix(2.59902,0,0,2.59902,-118.812,-68.4903)">
        <path d="M184.11,121.39C184.376,121.988 184.514,122.636 184.514,123.29C184.514,125.852 182.406,127.96 179.844,127.96C177.282,127.96 175.174,125.852 175.174,123.29C175.174,121.428 176.289,119.736 178,119C180.332,117.992 183.081,119.067 184.11,121.39Z" style="fill:white;fill-opacity:0.6;fill-rule:nonzero;"/>
    </g>
    <g transform="matrix(2.59902,0,0,2.59902,-118.812,-68.4903)">
        <path d="M178.71,122.72C178.82,122.99 179.11,123.01 179.47,122.96L179.04,121.96C178.68,122.21 178.6,122.48 178.71,122.72Z" style="fill:white;fill-opacity:0.3;fill-rule:nonzero;"/>
    </g>
    <g transform="matrix(2.59902,0,0,2.59902,-118.812,-68.4903)">
        <path d="M180.26,123.54L180.69,124.54C181.07,124.3 181.16,124.04 181.05,123.8C180.94,123.56 180.64,123.49 180.26,123.54Z" style="fill:white;fill-opacity:0.3;fill-rule:nonzero;"/>
    </g>
    <g transform="matrix(2.59902,0,0,2.59902,-118.812,-68.4903)">
        <path d="M178.23,119.61C176.781,120.248 175.841,121.688 175.841,123.271C175.841,125.465 177.647,127.271 179.841,127.271C182.036,127.271 183.841,125.465 183.841,123.271C183.841,122.698 183.718,122.131 183.48,121.61C182.577,119.633 180.22,118.734 178.23,119.61ZM180.95,125.12L181.22,125.73L180.77,125.93L180.51,125.32C180.019,125.52 179.478,125.566 178.96,125.45L178.96,124.79C179.387,124.889 179.834,124.868 180.25,124.73L179.76,123.63C179.09,123.74 178.34,123.83 178.01,123.07C177.76,122.51 178.01,121.84 178.78,121.38L178.51,120.76L178.96,120.56L179.23,121.17C179.629,121.009 180.064,120.958 180.49,121.02L180.49,121.67C180.153,121.633 179.813,121.667 179.49,121.77L179.97,122.88C180.65,122.76 181.4,122.66 181.74,123.42C182,124 181.78,124.65 181,125.12L180.95,125.12Z" style="fill:white;fill-opacity:0.3;fill-rule:nonzero;"/>
    </g>
    <g transform="matrix(1.60725,-2.04245,2.04245,1.60725,-476.827,993.935)">
        <circle cx="352.08" cy="346.24" r="10.41" style="fill:rgb(64,123,255);"/>
    </g>
    <g transform="matrix(1.60725,-2.04245,2.04245,1.60725,-476.827,993.935)">
        <circle cx="352.08" cy="346.24" r="10.41" style="fill:white;fill-opacity:0.6;"/>
    </g>
    <g transform="matrix(2.59902,0,0,2.59902,-118.812,-68.4903)">
        <path d="M351.13,343.64C350.9,344.24 351.34,344.72 351.98,345.2L352.83,342.98C351.88,342.78 351.34,343.09 351.13,343.64Z" style="fill:white;fill-opacity:0.3;fill-rule:nonzero;"/>
    </g>
    <g transform="matrix(2.59902,0,0,2.59902,-118.812,-68.4903)">
        <path d="M352.34,347.37L351.5,349.58C352.5,349.79 353.02,349.51 353.22,348.97C353.42,348.43 353,347.87 352.34,347.37Z" style="fill:white;fill-opacity:0.3;fill-rule:nonzero;"/>
    </g>
    <g transform="matrix(2.59902,0,0,2.59902,-118.812,-68.4903)">
        <path d="M355.22,337.93C354.218,337.552 353.156,337.358 352.084,337.358C347.213,337.358 343.204,341.367 343.204,346.238C343.204,351.109 347.213,355.118 352.084,355.118C355.768,355.118 359.087,352.826 360.39,349.38C362.103,344.821 359.772,339.66 355.22,337.93ZM351,351L350.47,352.4L349.47,352.01L349.99,350.62C348.899,350.176 347.968,349.413 347.32,348.43L348.32,347.37C348.843,348.194 349.588,348.853 350.47,349.27L351.41,346.77C350.15,345.91 348.83,344.89 349.49,343.15C349.97,341.87 351.32,341.15 353.34,341.66L353.88,340.25L354.88,340.63L354.36,342.02C355.243,342.399 356.017,342.994 356.61,343.75L355.61,344.82C355.127,344.222 354.524,343.731 353.84,343.38L352.84,345.9C354.1,346.77 355.45,347.78 354.79,349.52C354.38,350.74 353,351.49 351,351Z" style="fill:white;fill-opacity:0.3;fill-rule:nonzero;"/>
    </g>
    <g transform="matrix(2.59902,0,0,2.59902,-118.812,-68.4903)">
        <path d="M369.86,369.21C368.984,369.599 368.035,369.8 367.077,369.8C363.313,369.8 360.217,366.703 360.217,362.94C360.217,359.177 363.313,356.08 367.077,356.08C369.805,356.08 372.284,357.707 373.37,360.21C374.859,363.642 373.279,367.692 369.86,369.21Z" style="fill:rgb(64,123,255);fill-rule:nonzero;"/>
    </g>
    <g transform="matrix(2.59902,0,0,2.59902,-118.812,-68.4903)">
        <path d="M369.86,369.21C368.984,369.599 368.035,369.8 367.077,369.8C363.313,369.8 360.217,366.703 360.217,362.94C360.217,359.177 363.313,356.08 367.077,356.08C369.805,356.08 372.284,357.707 373.37,360.21C374.859,363.642 373.279,367.692 369.86,369.21Z" style="fill:white;fill-opacity:0.6;fill-rule:nonzero;"/>
    </g>
    <g transform="matrix(2.59902,0,0,2.59902,-118.812,-68.4903)">
        <path d="M367.87,361.28C367.48,361.45 367.46,361.88 367.53,362.41L368.97,361.77C368.62,361.24 368.23,361.12 367.87,361.28Z" style="fill:white;fill-opacity:0.3;fill-rule:nonzero;"/>
    </g>
    <g transform="matrix(2.59902,0,0,2.59902,-118.812,-68.4903)">
        <path d="M366.67,363.57L365.24,364.2C365.59,364.75 365.98,364.88 366.33,364.73C366.68,364.58 366.75,364.12 366.67,363.57Z" style="fill:white;fill-opacity:0.3;fill-rule:nonzero;"/>
    </g>
    <g transform="matrix(2.59902,0,0,2.59902,-118.812,-68.4903)">
        <path d="M372.45,360.57C371.516,358.446 369.406,357.068 367.085,357.068C363.871,357.068 361.225,359.714 361.225,362.928C361.225,366.143 363.871,368.788 367.085,368.788C367.9,368.788 368.705,368.619 369.45,368.29C372.385,366.99 373.737,363.511 372.45,360.57ZM364.36,364.57L363.46,364.97L363.17,364.31L364.06,363.91C363.765,363.191 363.695,362.399 363.86,361.64L364.86,361.64C364.71,362.266 364.745,362.923 364.96,363.53L366.57,362.82C366.39,361.82 366.26,360.73 367.38,360.24C367.599,360.157 367.831,360.114 368.065,360.114C368.866,360.114 369.586,360.612 369.87,361.36L370.78,360.96L371.07,361.62L370.17,362.02C370.405,362.61 370.485,363.251 370.4,363.88L369.4,363.88C369.457,363.376 369.409,362.865 369.26,362.38L367.63,363.1C367.81,364.1 367.96,365.2 366.83,365.69C366,366.09 365.05,365.8 364.36,364.59L364.36,364.57Z" style="fill:white;fill-opacity:0.3;fill-rule:nonzero;"/>
    </g>
    <g transform="matrix(2.59902,0,0,2.59902,-118.812,-68.4903)">
        <path d="M162.21,369.17C162.219,369.289 162.224,369.408 162.224,369.527C162.224,372.089 160.116,374.197 157.554,374.197C154.992,374.197 152.884,372.089 152.884,369.527C152.884,367.095 154.784,365.049 157.21,364.87C159.76,364.682 162.014,366.621 162.21,369.17Z" style="fill:rgb(64,123,255);fill-rule:nonzero;"/>
    </g>
    <g transform="matrix(2.59902,0,0,2.59902,-118.812,-68.4903)">
        <path d="M162.21,369.17C162.219,369.289 162.224,369.408 162.224,369.527C162.224,372.089 160.116,374.197 157.554,374.197C154.992,374.197 152.884,372.089 152.884,369.527C152.884,367.095 154.784,365.049 157.21,364.87C159.76,364.682 162.014,366.621 162.21,369.17Z" style="fill:white;fill-opacity:0.6;fill-rule:nonzero;"/>
    </g>
    <g transform="matrix(2.59902,0,0,2.59902,-118.812,-68.4903)">
        <path d="M156.67,368.65C156.67,368.94 156.96,369.05 157.31,369.13L157.23,368.06C156.81,368.16 156.65,368.39 156.67,368.65Z" style="fill:white;fill-opacity:0.3;fill-rule:nonzero;"/>
    </g>
    <g transform="matrix(2.59902,0,0,2.59902,-118.812,-68.4903)">
        <path d="M157.87,369.94L158,371C158.44,370.9 158.61,370.68 158.58,370.43C158.55,370.18 158.24,370 157.87,369.94Z" style="fill:white;fill-opacity:0.3;fill-rule:nonzero;"/>
    </g>
    <g transform="matrix(2.59902,0,0,2.59902,-118.812,-68.4903)">
        <path d="M157.24,365.55C155.166,365.707 153.543,367.458 153.543,369.539C153.543,371.733 155.348,373.539 157.543,373.539C159.737,373.539 161.543,371.733 161.543,369.539C161.543,369.432 161.538,369.326 161.53,369.22C161.356,367.039 159.422,365.384 157.24,365.55ZM158,371.65L158.06,372.33L157.57,372.33L157.51,371.67C156.983,371.696 156.461,371.564 156.01,371.29L156.23,370.66C156.595,370.899 157.023,371.025 157.46,371.02L157.37,369.82C156.69,369.71 155.96,369.55 155.9,368.72C155.85,368.11 156.25,367.54 157.18,367.38L157.13,366.7L157.62,366.7L157.62,367.37C158.05,367.353 158.476,367.446 158.86,367.64L158.66,368.26C158.348,368.11 158.007,368.028 157.66,368.02L157.75,369.23C158.43,369.34 159.17,369.49 159.24,370.32C159.35,370.92 158.94,371.48 158,371.65Z" style="fill:white;fill-opacity:0.3;fill-rule:nonzero;"/>
    </g>
    <g transform="matrix(2.59902,0,0,2.59902,-118.812,-68.4903)">
        <path d="M389.06,167.12L389.06,170.7L390.9,170.88C391.148,172.057 391.616,173.177 392.28,174.18L391.09,175.61L393.63,178.14L395.06,176.96C396.063,177.624 397.183,178.092 398.36,178.34L398.54,180.18L402.12,180.18L402.29,178.34C403.467,178.104 404.59,177.65 405.6,177L407.03,178.18L409.56,175.65L408.38,174.22C409.04,173.216 409.505,172.096 409.75,170.92L411.6,170.74L411.6,167.16L409.75,166.99C409.505,165.81 409.041,164.687 408.38,163.68L409.56,162.25L407,159.68L405.57,160.86C404.563,160.199 403.44,159.735 402.26,159.49L402.09,157.64L398.51,157.64L398.33,159.49C397.154,159.735 396.034,160.2 395.03,160.86L393.6,159.68L391.06,162.21L392.25,163.64C391.591,164.664 391.133,165.805 390.9,167L389.06,167.12ZM400.33,164.06C402.991,164.06 405.18,166.249 405.18,168.91C405.18,171.571 402.991,173.76 400.33,173.76C397.669,173.76 395.48,171.571 395.48,168.91C395.48,166.249 397.669,164.06 400.33,164.06Z" style="fill:rgb(64,123,255);fill-rule:nonzero;"/>
    </g>
    <g transform="matrix(2.59902,0,0,2.59902,-118.812,-68.4903)">
        <path d="M392.5,196.4C393.508,196.185 394.468,195.785 395.33,195.22L396.55,196.22L398.72,194.06L397.72,192.83C398.292,191.972 398.693,191.011 398.9,190L400.48,189.86L400.48,186.8L398.9,186.65C398.692,185.643 398.291,184.685 397.72,183.83L398.72,182.6L396.55,180.44L395.33,181.44C394.468,180.875 393.508,180.475 392.5,180.26L392.35,178.69L389.29,178.69L389.14,180.26C388.131,180.473 387.171,180.873 386.31,181.44L385.08,180.44L382.92,182.6L383.92,183.83C383.356,184.688 382.96,185.645 382.75,186.65L381.17,186.8L381.17,189.87L382.75,190.01C382.958,191.019 383.355,191.979 383.92,192.84L382.92,194.07L385.08,196.23L386.31,195.23C387.171,195.797 388.131,196.197 389.14,196.41L389.29,197.98L392.35,197.98L392.5,196.4ZM386.67,188.33C386.67,186.053 388.543,184.18 390.82,184.18C393.097,184.18 394.97,186.053 394.97,188.33C394.97,190.607 393.097,192.48 390.82,192.48C390.817,192.48 390.813,192.48 390.81,192.48C388.539,192.48 386.67,190.611 386.67,188.34C386.67,188.337 386.67,188.333 386.67,188.33Z" style="fill:rgb(64,123,255);fill-rule:nonzero;"/>
    </g>
    <g transform="matrix(2.59902,0,0,2.59902,-118.812,-68.4903)">
        <path d="M383.66,177.82L384.66,178.67L386.48,176.85L385.63,175.85C386.111,175.131 386.45,174.326 386.63,173.48L387.95,173.35L387.95,170.78L386.63,170.65C386.45,169.804 386.111,168.999 385.63,168.28L386.48,167.28L384.66,165.46L383.66,166.31C382.941,165.829 382.136,165.49 381.29,165.31L381.16,163.99L378.59,163.99L378.46,165.31C377.614,165.49 376.809,165.829 376.09,166.31L375.09,165.46L373.27,167.28L374.12,168.28C373.639,168.999 373.3,169.804 373.12,170.65L371.8,170.78L371.8,173.35L373.12,173.48C373.3,174.326 373.639,175.131 374.12,175.85L373.27,176.85L375.09,178.67L376.09,177.82C376.811,178.297 377.615,178.636 378.46,178.82L378.59,180.14L381.16,180.14L381.29,178.82C382.135,178.636 382.939,178.297 383.66,177.82ZM376.39,172C376.39,170.085 377.965,168.51 379.88,168.51C381.795,168.51 383.37,170.085 383.37,172C383.37,173.915 381.795,175.49 379.88,175.49C379.877,175.49 379.873,175.49 379.87,175.49C377.961,175.49 376.39,173.919 376.39,172.01C376.39,172.007 376.39,172.003 376.39,172Z" style="fill:rgb(64,123,255);fill-rule:nonzero;"/>
    </g>
    <g transform="matrix(2.59902,0,0,2.59902,-118.812,-68.4903)">
        <g opacity="0.6">
            <path d="M389.06,167.12L389.06,170.7L390.9,170.88C391.148,172.057 391.616,173.177 392.28,174.18L391.09,175.61L393.63,178.14L395.06,176.96C396.063,177.624 397.183,178.092 398.36,178.34L398.54,180.18L402.12,180.18L402.29,178.34C403.467,178.104 404.59,177.65 405.6,177L407.03,178.18L409.56,175.65L408.38,174.22C409.04,173.216 409.505,172.096 409.75,170.92L411.6,170.74L411.6,167.16L409.75,166.99C409.505,165.81 409.041,164.687 408.38,163.68L409.56,162.25L407,159.68L405.57,160.86C404.563,160.199 403.44,159.735 402.26,159.49L402.09,157.64L398.51,157.64L398.33,159.49C397.154,159.735 396.034,160.2 395.03,160.86L393.6,159.68L391.06,162.21L392.25,163.64C391.591,164.664 391.133,165.805 390.9,167L389.06,167.12ZM400.33,164.06C402.991,164.06 405.18,166.249 405.18,168.91C405.18,171.571 402.991,173.76 400.33,173.76C397.669,173.76 395.48,171.571 395.48,168.91C395.48,166.249 397.669,164.06 400.33,164.06Z" style="fill:white;fill-rule:nonzero;"/>
            <path d="M392.5,196.4C393.508,196.185 394.468,195.785 395.33,195.22L396.55,196.22L398.72,194.06L397.72,192.83C398.292,191.972 398.693,191.011 398.9,190L400.48,189.86L400.48,186.8L398.9,186.65C398.692,185.643 398.291,184.685 397.72,183.83L398.72,182.6L396.55,180.44L395.33,181.44C394.468,180.875 393.508,180.475 392.5,180.26L392.35,178.69L389.29,178.69L389.14,180.26C388.131,180.473 387.171,180.873 386.31,181.44L385.08,180.44L382.92,182.6L383.92,183.83C383.356,184.688 382.96,185.645 382.75,186.65L381.17,186.8L381.17,189.87L382.75,190.01C382.958,191.019 383.355,191.979 383.92,192.84L382.92,194.07L385.08,196.23L386.31,195.23C387.171,195.797 388.131,196.197 389.14,196.41L389.29,197.98L392.35,197.98L392.5,196.4ZM386.67,188.33C386.67,186.053 388.543,184.18 390.82,184.18C393.097,184.18 394.97,186.053 394.97,188.33C394.97,190.607 393.097,192.48 390.82,192.48C390.817,192.48 390.813,192.48 390.81,192.48C388.539,192.48 386.67,190.611 386.67,188.34C386.67,188.337 386.67,188.333 386.67,188.33Z" style="fill:white;fill-rule:nonzero;"/>
            <path d="M383.66,177.82L384.66,178.67L386.48,176.85L385.63,175.85C386.111,175.131 386.45,174.326 386.63,173.48L387.95,173.35L387.95,170.78L386.63,170.65C386.45,169.804 386.111,168.999 385.63,168.28L386.48,167.28L384.66,165.46L383.66,166.31C382.941,165.829 382.136,165.49 381.29,165.31L381.16,163.99L378.59,163.99L378.46,165.31C377.614,165.49 376.809,165.829 376.09,166.31L375.09,165.46L373.27,167.28L374.12,168.28C373.639,168.999 373.3,169.804 373.12,170.65L371.8,170.78L371.8,173.35L373.12,173.48C373.3,174.326 373.639,175.131 374.12,175.85L373.27,176.85L375.09,178.67L376.09,177.82C376.811,178.297 377.615,178.636 378.46,178.82L378.59,180.14L381.16,180.14L381.29,178.82C382.135,178.636 382.939,178.297 383.66,177.82ZM376.39,172C376.39,170.085 377.965,168.51 379.88,168.51C381.795,168.51 383.37,170.085 383.37,172C383.37,173.915 381.795,175.49 379.88,175.49C379.877,175.49 379.873,175.49 379.87,175.49C377.961,175.49 376.39,173.919 376.39,172.01C376.39,172.007 376.39,172.003 376.39,172Z" style="fill:white;fill-rule:nonzero;"/>
        </g>
    </g>
    <g transform="matrix(2.59902,0,0,2.59902,-118.812,-68.4903)">
        <path d="M103.41,254.81L100.76,257.21L101.86,258.7C101.154,259.672 100.635,260.768 100.33,261.93L98.48,262.02L98.3,265.59L100.14,265.86C100.322,267.049 100.729,268.193 101.34,269.23L100.08,270.6L102.49,273.25L103.97,272.15C104.945,272.858 106.044,273.377 107.21,273.68L107.29,275.53L110.87,275.71L111.13,273.87C112.322,273.69 113.468,273.286 114.51,272.68L115.87,273.93L118.53,271.53L117.42,270C118.141,269.041 118.677,267.956 119,266.8L120.86,266.72L121.04,263.15L119.2,262.88C119.016,261.688 118.609,260.541 118,259.5L119.25,258.14L116.85,255.48L115.37,256.59C114.394,255.884 113.295,255.365 112.13,255.06L112,253.2L108.42,253.03L108.15,254.86C106.962,255.048 105.819,255.455 104.78,256.06L103.41,254.81ZM113.24,261.12C114.044,262.011 114.49,263.17 114.49,264.37C114.49,267.031 112.301,269.22 109.64,269.22C106.979,269.22 104.79,267.031 104.79,264.37C104.79,262.998 105.372,261.689 106.39,260.77C107.28,259.963 108.439,259.516 109.641,259.516C111.013,259.516 112.323,260.099 113.24,261.12Z" style="fill:rgb(64,123,255);fill-rule:nonzero;"/>
    </g>
    <g transform="matrix(2.59902,0,0,2.59902,-118.812,-68.4903)">
        <path d="M91.86,258L91.92,259.33L94.49,259.46L94.68,258.14C95.534,258.011 96.356,257.719 97.1,257.28L98.1,258.18L100.01,256.46L99.22,255.39C99.729,254.689 100.102,253.899 100.32,253.06L101.65,253L101.78,250.43L100.46,250.24C100.325,249.387 100.033,248.567 99.6,247.82L100.5,246.82L98.77,244.91L97.7,245.71C97.004,245.199 96.216,244.826 95.38,244.61L95.32,243.27L92.75,243.14L92.56,244.46C91.704,244.594 90.88,244.885 90.13,245.32L89.13,244.43L87.22,246.15L88.02,247.22C87.509,247.916 87.136,248.704 86.92,249.54L85.59,249.6L85.46,252.17L86.78,252.36C86.909,253.217 87.201,254.042 87.64,254.79L86.74,255.79L88.47,257.7L89.53,256.9C90.229,257.413 91.02,257.787 91.86,258ZM91.27,248.73C91.909,248.154 92.74,247.835 93.6,247.835C95.509,247.835 97.08,249.406 97.08,251.315C97.08,253.224 95.509,254.795 93.6,254.795C92.617,254.795 91.679,254.379 91.02,253.65C90.435,253.009 90.11,252.172 90.11,251.304C90.11,250.314 90.532,249.37 91.27,248.71L91.27,248.73Z" style="fill:rgb(64,123,255);fill-rule:nonzero;"/>
    </g>
    <g transform="matrix(2.59902,0,0,2.59902,-118.812,-68.4903)">
        <g opacity="0.6">
            <path d="M103.41,254.81L100.76,257.21L101.86,258.7C101.154,259.672 100.635,260.768 100.33,261.93L98.48,262.02L98.3,265.59L100.14,265.86C100.322,267.049 100.729,268.193 101.34,269.23L100.08,270.6L102.49,273.25L103.97,272.15C104.945,272.858 106.044,273.377 107.21,273.68L107.29,275.53L110.87,275.71L111.13,273.87C112.322,273.69 113.468,273.286 114.51,272.68L115.87,273.93L118.53,271.53L117.42,270C118.141,269.041 118.677,267.956 119,266.8L120.86,266.72L121.04,263.15L119.2,262.88C119.016,261.688 118.609,260.541 118,259.5L119.25,258.14L116.85,255.48L115.37,256.59C114.394,255.884 113.295,255.365 112.13,255.06L112,253.2L108.42,253.03L108.15,254.86C106.962,255.048 105.819,255.455 104.78,256.06L103.41,254.81ZM113.24,261.12C114.044,262.011 114.49,263.17 114.49,264.37C114.49,267.031 112.301,269.22 109.64,269.22C106.979,269.22 104.79,267.031 104.79,264.37C104.79,262.998 105.372,261.689 106.39,260.77C107.28,259.963 108.439,259.516 109.641,259.516C111.013,259.516 112.323,260.099 113.24,261.12Z" style="fill:white;fill-rule:nonzero;"/>
            <path d="M91.86,258L91.92,259.33L94.49,259.46L94.68,258.14C95.534,258.011 96.356,257.719 97.1,257.28L98.1,258.18L100.01,256.46L99.22,255.39C99.729,254.689 100.102,253.899 100.32,253.06L101.65,253L101.78,250.43L100.46,250.24C100.325,249.387 100.033,248.567 99.6,247.82L100.5,246.82L98.77,244.91L97.7,245.71C97.004,245.199 96.216,244.826 95.38,244.61L95.32,243.27L92.75,243.14L92.56,244.46C91.704,244.594 90.88,244.885 90.13,245.32L89.13,244.43L87.22,246.15L88.02,247.22C87.509,247.916 87.136,248.704 86.92,249.54L85.59,249.6L85.46,252.17L86.78,252.36C86.909,253.217 87.201,254.042 87.64,254.79L86.74,255.79L88.47,257.7L89.53,256.9C90.229,257.413 91.02,257.787 91.86,258ZM91.27,248.73C91.909,248.154 92.74,247.835 93.6,247.835C95.509,247.835 97.08,249.406 97.08,251.315C97.08,253.224 95.509,254.795 93.6,254.795C92.617,254.795 91.679,254.379 91.02,253.65C90.435,253.009 90.11,252.172 90.11,251.304C90.11,250.314 90.532,249.37 91.27,248.71L91.27,248.73Z" style="fill:white;fill-rule:nonzero;"/>
        </g>
    </g>
    <g transform="matrix(2.59902,0,0,2.59902,-118.812,-68.4903)">
        <path d="M250.36,113.47L250.42,114.81L252.99,114.94L253.18,113.62C254.036,113.486 254.86,113.195 255.61,112.76L256.61,113.65L258.52,111.93L257.72,110.86C258.231,110.164 258.604,109.376 258.82,108.54L260.15,108.48L260.28,105.91L258.96,105.72C258.831,104.863 258.539,104.038 258.1,103.29L259,102.29L257.27,100.38L256.21,101.18C255.511,100.667 254.72,100.293 253.88,100.08L253.82,98.75L251.25,98.62L251,100C250.146,100.129 249.324,100.421 248.58,100.86L247.58,99.96L245.67,101.68L246.46,102.75C245.951,103.451 245.578,104.241 245.36,105.08L244.03,105.14L243.9,107.7L245.22,107.9C245.355,108.753 245.647,109.573 246.08,110.32L245.19,111.32L246.91,113.23L247.98,112.43C248.699,112.927 249.507,113.28 250.36,113.47ZM249.78,104.2C250.419,103.624 251.25,103.305 252.11,103.305C254.019,103.305 255.59,104.876 255.59,106.785C255.59,108.694 254.019,110.265 252.11,110.265C251.127,110.265 250.189,109.849 249.53,109.12C248.951,108.48 248.63,107.648 248.63,106.785C248.63,105.8 249.048,104.86 249.78,104.2Z" style="fill:rgb(64,123,255);fill-rule:nonzero;"/>
    </g>
    <g transform="matrix(2.59902,0,0,2.59902,-118.812,-68.4903)">
        <path d="M250.36,113.47L250.42,114.81L252.99,114.94L253.18,113.62C254.036,113.486 254.86,113.195 255.61,112.76L256.61,113.65L258.52,111.93L257.72,110.86C258.231,110.164 258.604,109.376 258.82,108.54L260.15,108.48L260.28,105.91L258.96,105.72C258.831,104.863 258.539,104.038 258.1,103.29L259,102.29L257.27,100.38L256.21,101.18C255.511,100.667 254.72,100.293 253.88,100.08L253.82,98.75L251.25,98.62L251,100C250.146,100.129 249.324,100.421 248.58,100.86L247.58,99.96L245.67,101.68L246.46,102.75C245.951,103.451 245.578,104.241 245.36,105.08L244.03,105.14L243.9,107.7L245.22,107.9C245.355,108.753 245.647,109.573 246.08,110.32L245.19,111.32L246.91,113.23L247.98,112.43C248.699,112.927 249.507,113.28 250.36,113.47ZM249.78,104.2C250.419,103.624 251.25,103.305 252.11,103.305C254.019,103.305 255.59,104.876 255.59,106.785C255.59,108.694 254.019,110.265 252.11,110.265C251.127,110.265 250.189,109.849 249.53,109.12C248.951,108.48 248.63,107.648 248.63,106.785C248.63,105.8 249.048,104.86 249.78,104.2Z" style="fill:white;fill-opacity:0.6;fill-rule:nonzero;"/>
    </g>
    <g transform="matrix(2.59902,0,0,2.59902,-118.812,-68.4903)">
        <path d="M249.25,245.48C247.532,245.481 245.821,245.279 244.15,244.88C243.877,244.815 243.682,244.568 243.682,244.287C243.682,244.237 243.688,244.188 243.7,244.14C243.783,243.816 244.114,243.615 244.44,243.69C246.015,244.07 247.63,244.261 249.25,244.26C254.914,244.258 260.338,241.937 264.25,237.84C264.361,237.721 264.517,237.654 264.68,237.654C264.843,237.654 264.999,237.721 265.11,237.84C265.345,238.076 265.345,238.464 265.11,238.7C260.968,243.023 255.237,245.473 249.25,245.48ZM235.94,241L236.32,240.52L235.91,240.98C232.992,238.724 230.688,235.77 229.21,232.39C229.175,232.312 229.156,232.227 229.156,232.142C229.156,231.902 229.3,231.684 229.52,231.59C229.825,231.458 230.184,231.597 230.32,231.9C231.707,235.091 233.882,237.879 236.64,240L236.32,240.52L235.94,241ZM266.39,236.87C266.26,236.869 266.134,236.827 266.03,236.75C265.762,236.552 265.704,236.169 265.9,235.9C267.961,233.101 269.282,229.826 269.74,226.38C269.786,226.047 270.096,225.809 270.43,225.85C270.758,225.896 270.991,226.201 270.95,226.53C270.464,230.182 269.064,233.653 266.88,236.62C266.756,236.758 266.575,236.831 266.39,236.82L266.39,236.87ZM228.86,230.25C228.589,230.249 228.349,230.069 228.27,229.81C227.688,227.805 227.392,225.728 227.39,223.64C227.383,218.781 229.007,214.058 232,210.23C232.47,209.64 233,209.06 233.48,208.51C233.716,208.275 234.104,208.275 234.34,208.51C234.456,208.623 234.522,208.778 234.522,208.94C234.522,209.102 234.456,209.257 234.34,209.37C233.847,209.888 233.383,210.432 232.95,211C230.146,214.603 228.628,219.044 228.64,223.61C228.641,225.583 228.921,227.545 229.47,229.44C229.487,229.496 229.495,229.554 229.495,229.613C229.495,229.88 229.317,230.117 229.06,230.19L228.86,230.25ZM269.66,218.25C269.392,218.247 269.155,218.068 269.08,217.81C266.986,210.751 261.282,205.319 254.13,203.57C253.887,203.484 253.725,203.253 253.725,202.995C253.725,202.661 254,202.385 254.335,202.385C254.36,202.385 254.385,202.387 254.41,202.39C261.995,204.224 268.046,209.984 270.25,217.47C270.34,217.793 270.152,218.134 269.83,218.23L269.66,218.25ZM241.17,204.6C240.921,204.599 240.696,204.449 240.6,204.22C240.57,204.147 240.554,204.069 240.554,203.99C240.554,203.742 240.708,203.519 240.94,203.43C244.346,202.029 248.05,201.51 251.71,201.92C252.012,201.948 252.246,202.204 252.246,202.508C252.246,202.535 252.244,202.563 252.24,202.59C252.204,202.921 251.902,203.165 251.57,203.13C248.115,202.741 244.616,203.229 241.4,204.55C241.324,204.563 241.246,204.563 241.17,204.55L241.17,204.6Z" style="fill:rgb(38,50,56);fill-rule:nonzero;"/>
    </g>
    <g transform="matrix(2.59902,0,0,2.59902,-118.812,-68.4903)">
        <path d="M259.85,205.77C259.741,205.773 259.634,205.745 259.54,205.69C259.253,205.522 259.154,205.148 259.32,204.86L296.48,140.76C296.592,140.657 296.739,140.601 296.891,140.601C297.226,140.601 297.501,140.876 297.501,141.211C297.501,141.264 297.494,141.318 297.48,141.37L260.32,205.47C260.225,205.644 260.047,205.757 259.85,205.77Z" style="fill:rgb(38,50,56);fill-rule:nonzero;"/>
    </g>
    <g transform="matrix(2.59902,0,0,2.59902,-118.812,-68.4903)">
        <path d="M356,270.49C355.917,270.493 355.835,270.476 355.76,270.44L268.22,233.44C267.913,233.308 267.769,232.947 267.9,232.64C267.992,232.415 268.212,232.268 268.455,232.268C268.539,232.268 268.623,232.286 268.7,232.32L356.24,269.32C356.463,269.416 356.608,269.637 356.608,269.88C356.608,270.214 356.334,270.489 356,270.49Z" style="fill:rgb(38,50,56);fill-rule:nonzero;"/>
    </g>
    <g transform="matrix(2.59902,0,0,2.59902,-118.812,-68.4903)">
        <path d="M249.25,245.48C247.532,245.481 245.821,245.279 244.15,244.88C243.877,244.815 243.682,244.568 243.682,244.287C243.682,244.237 243.688,244.188 243.7,244.14C243.783,243.816 244.114,243.615 244.44,243.69C246.015,244.07 247.63,244.261 249.25,244.26C254.914,244.258 260.338,241.937 264.25,237.84C264.361,237.721 264.517,237.654 264.68,237.654C264.843,237.654 264.999,237.721 265.11,237.84C265.345,238.076 265.345,238.464 265.11,238.7C260.968,243.023 255.237,245.473 249.25,245.48ZM235.94,241L236.32,240.52L235.91,240.98C232.992,238.724 230.688,235.77 229.21,232.39C229.175,232.312 229.156,232.227 229.156,232.142C229.156,231.902 229.3,231.684 229.52,231.59C229.825,231.458 230.184,231.597 230.32,231.9C231.707,235.091 233.882,237.879 236.64,240L236.32,240.52L235.94,241ZM266.39,236.87C266.26,236.869 266.134,236.827 266.03,236.75C265.762,236.552 265.704,236.169 265.9,235.9C267.961,233.101 269.282,229.826 269.74,226.38C269.786,226.047 270.096,225.809 270.43,225.85C270.758,225.896 270.991,226.201 270.95,226.53C270.464,230.182 269.064,233.653 266.88,236.62C266.756,236.758 266.575,236.831 266.39,236.82L266.39,236.87ZM228.86,230.25C228.589,230.249 228.349,230.069 228.27,229.81C227.688,227.805 227.392,225.728 227.39,223.64C227.383,218.781 229.007,214.058 232,210.23C232.47,209.64 233,209.06 233.48,208.51C233.716,208.275 234.104,208.275 234.34,208.51C234.456,208.623 234.522,208.778 234.522,208.94C234.522,209.102 234.456,209.257 234.34,209.37C233.847,209.888 233.383,210.432 232.95,211C230.146,214.603 228.628,219.044 228.64,223.61C228.641,225.583 228.921,227.545 229.47,229.44C229.487,229.496 229.495,229.554 229.495,229.613C229.495,229.88 229.317,230.117 229.06,230.19L228.86,230.25ZM269.66,218.25C269.392,218.247 269.155,218.068 269.08,217.81C266.986,210.751 261.282,205.319 254.13,203.57C253.887,203.484 253.725,203.253 253.725,202.995C253.725,202.661 254,202.385 254.335,202.385C254.36,202.385 254.385,202.387 254.41,202.39C261.995,204.224 268.046,209.984 270.25,217.47C270.34,217.793 270.152,218.134 269.83,218.23L269.66,218.25ZM241.17,204.6C240.921,204.599 240.696,204.449 240.6,204.22C240.57,204.147 240.554,204.069 240.554,203.99C240.554,203.742 240.708,203.519 240.94,203.43C244.346,202.029 248.05,201.51 251.71,201.92C252.012,201.948 252.246,202.204 252.246,202.508C252.246,202.535 252.244,202.563 252.24,202.59C252.204,202.921 251.902,203.165 251.57,203.13C248.115,202.741 244.616,203.229 241.4,204.55C241.324,204.563 241.246,204.563 241.17,204.55L241.17,204.6Z" style="fill:white;fill-opacity:0.5;fill-rule:nonzero;"/>
    </g>
    <g transform="matrix(2.59902,0,0,2.59902,-118.812,-68.4903)">
        <path d="M259.85,205.77C259.741,205.773 259.634,205.745 259.54,205.69C259.253,205.522 259.154,205.148 259.32,204.86L296.48,140.76C296.592,140.657 296.739,140.601 296.891,140.601C297.226,140.601 297.501,140.876 297.501,141.211C297.501,141.264 297.494,141.318 297.48,141.37L260.32,205.47C260.225,205.644 260.047,205.757 259.85,205.77Z" style="fill:white;fill-opacity:0.5;fill-rule:nonzero;"/>
    </g>
    <g transform="matrix(2.59902,0,0,2.59902,-118.812,-68.4903)">
        <path d="M356,270.49C355.917,270.493 355.835,270.476 355.76,270.44L268.22,233.44C267.913,233.308 267.769,232.947 267.9,232.64C267.992,232.415 268.212,232.268 268.455,232.268C268.539,232.268 268.623,232.286 268.7,232.32L356.24,269.32C356.463,269.416 356.608,269.637 356.608,269.88C356.608,270.214 356.334,270.489 356,270.49Z" style="fill:white;fill-opacity:0.5;fill-rule:nonzero;"/>
    </g>
    <g transform="matrix(2.59902,0,0,2.59902,-118.812,-68.4903)">
        <path d="M230.26,214.68C230.174,214.678 230.09,214.661 230.01,214.63L150.22,178.15C150.004,178.051 149.864,177.833 149.864,177.595C149.864,177.26 150.14,176.984 150.475,176.984C150.563,176.984 150.65,177.003 150.73,177.04L230.51,213.52C230.721,213.621 230.856,213.836 230.856,214.07C230.856,214.4 230.589,214.673 230.26,214.68Z" style="fill:rgb(38,50,56);fill-rule:nonzero;"/>
    </g>
    <g transform="matrix(2.59902,0,0,2.59902,-118.812,-68.4903)">
        <path d="M230.26,214.68C230.174,214.678 230.09,214.661 230.01,214.63L150.22,178.15C150.004,178.051 149.864,177.833 149.864,177.595C149.864,177.26 150.14,176.984 150.475,176.984C150.563,176.984 150.65,177.003 150.73,177.04L230.51,213.52C230.721,213.621 230.856,213.836 230.856,214.07C230.856,214.4 230.589,214.673 230.26,214.68Z" style="fill:white;fill-opacity:0.5;fill-rule:nonzero;"/>
    </g>
    <g transform="matrix(2.59902,0,0,2.59902,-118.812,-68.4903)">
        <path d="M147.1,309.65C146.922,309.647 146.754,309.567 146.64,309.43C146.544,309.322 146.491,309.183 146.491,309.038C146.491,308.861 146.572,308.692 146.71,308.58L231.71,235.67C231.818,235.582 231.954,235.535 232.093,235.535C232.428,235.535 232.703,235.81 232.703,236.145C232.703,236.313 232.633,236.475 232.51,236.59L147.51,309.5C147.396,309.598 147.25,309.651 147.1,309.65Z" style="fill:rgb(38,50,56);fill-rule:nonzero;"/>
    </g>
    <g transform="matrix(2.59902,0,0,2.59902,-118.812,-68.4903)">
        <path d="M147.1,309.65C146.922,309.647 146.754,309.567 146.64,309.43C146.544,309.322 146.491,309.183 146.491,309.038C146.491,308.861 146.572,308.692 146.71,308.58L231.71,235.67C231.818,235.582 231.954,235.535 232.093,235.535C232.428,235.535 232.703,235.81 232.703,236.145C232.703,236.313 232.633,236.475 232.51,236.59L147.51,309.5C147.396,309.598 147.25,309.651 147.1,309.65Z" style="fill:white;fill-opacity:0.5;fill-rule:nonzero;"/>
    </g>
    <g transform="matrix(2.59902,0,0,2.59902,-118.812,-68.4903)">
        <path d="M397.59,287.7L397.53,287.84L390.46,305.75L387.8,312.49L382.82,303.46L373.01,306.65L382.8,281.86L389.01,284.32L397.21,287.56L397.59,287.7Z" style="fill:rgb(64,123,255);fill-rule:nonzero;"/>
    </g>
    <g transform="matrix(2.59902,0,0,2.59902,-118.812,-68.4903)">
        <g opacity="0.2">
            <path d="M387.87,309.19L383.6,301.47L375.21,304.19L383.68,282.74L396.34,287.74L387.87,309.19ZM383.76,301.07L387.82,308.42L395.91,287.92L383.91,283.17L375.82,303.67L383.76,301.07Z" style="fill:white;fill-rule:nonzero;"/>
        </g>
    </g>
    <g transform="matrix(2.59902,0,0,2.59902,-118.812,-68.4903)">
        <path d="M397.53,287.84L390.46,305.75C387.817,299.495 386.255,292.837 385.84,286.06L389.01,284.32L397.21,287.56L397.53,287.84Z" style="fill-opacity:0.2;fill-rule:nonzero;"/>
    </g>
    <g transform="matrix(2.59902,0,0,2.59902,-118.812,-68.4903)">
        <path d="M395.93,312.49L400.91,303.46L410.72,306.65L400.93,281.86L386.14,287.7L395.93,312.49Z" style="fill:rgb(64,123,255);fill-rule:nonzero;"/>
    </g>
    <g transform="matrix(2.59902,0,0,2.59902,-118.812,-68.4903)">
        <g opacity="0.2">
            <path d="M387.39,287.74L400.04,282.74L408.51,304.19L400.12,301.47L395.86,309.19L387.39,287.74ZM408,303.67L399.91,283.17L387.86,287.92L395.96,308.42L400.02,301.07L408,303.67Z" style="fill:white;fill-rule:nonzero;"/>
        </g>
    </g>
    <g transform="matrix(2.59902,0,0,2.59902,-118.812,-68.4903)">
        <path d="M391.86,252.62L393.61,251.25L395.09,252.91L397.06,251.88L398.21,253.77L400.33,253.1L401.13,255.18L403.34,254.9L403.76,257.08L405.98,257.2L406,259.42L408.16,259.94L407.78,262.13L409.82,263.02L409.06,265.11L410.9,266.35L409.78,268.27L411.37,269.82L409.92,271.51L411.21,273.32L409.49,274.72L410.43,276.73L408.49,277.8L409.06,279.95L406.95,280.65L407.13,282.87L404.93,283.19L404.71,285.4L402.49,285.32L401.88,287.45L399.71,286.98L398.72,288.97L396.67,288.12L395.35,289.9L393.48,288.7L391.86,290.22L390.24,288.7L388.38,289.9L387.05,288.12L385,288.97L384.02,286.98L381.85,287.45L381.24,285.32L379.02,285.4L378.8,283.19L376.6,282.87L376.78,280.65L374.67,279.95L375.24,277.8L373.3,276.73L374.24,274.72L372.52,273.32L373.8,271.51L372.36,269.82L373.95,268.27L372.83,266.35L374.67,265.11L373.91,263.02L375.94,262.13L375.57,259.94L377.73,259.42L377.75,257.2L379.97,257.08L380.39,254.9L382.59,255.18L383.39,253.1L385.51,253.77L386.67,251.88L388.64,252.91L390.11,251.25L391.86,252.62Z" style="fill:rgb(64,123,255);fill-rule:nonzero;"/>
    </g>
    <g transform="matrix(2.59902,0,0,2.59902,-118.812,-68.4903)">
        <path d="M391.86,252.62L393.61,251.25L395.09,252.91L397.06,251.88L398.21,253.77L400.33,253.1L401.13,255.18L403.34,254.9L403.76,257.08L405.98,257.2L406,259.42L408.16,259.94L407.78,262.13L409.82,263.02L409.06,265.11L410.9,266.35L409.78,268.27L411.37,269.82L409.92,271.51L411.21,273.32L409.49,274.72L410.43,276.73L408.49,277.8L409.06,279.95L406.95,280.65L407.13,282.87L404.93,283.19L404.71,285.4L402.49,285.32L401.88,287.45L399.71,286.98L398.72,288.97L396.67,288.12L395.35,289.9L393.48,288.7L391.86,290.22L390.24,288.7L388.38,289.9L387.05,288.12L385,288.97L384.02,286.98L381.85,287.45L381.24,285.32L379.02,285.4L378.8,283.19L376.6,282.87L376.78,280.65L374.67,279.95L375.24,277.8L373.3,276.73L374.24,274.72L372.52,273.32L373.8,271.51L372.36,269.82L373.95,268.27L372.83,266.35L374.67,265.11L373.91,263.02L375.94,262.13L375.57,259.94L377.73,259.42L377.75,257.2L379.97,257.08L380.39,254.9L382.59,255.18L383.39,253.1L385.51,253.77L386.67,251.88L388.64,252.91L390.11,251.25L391.86,252.62Z" style="fill:white;fill-opacity:0.3;fill-rule:nonzero;"/>
    </g>
    <g transform="matrix(2.59902,0,0,2.59902,-118.812,-68.4903)">
        <circle cx="391.86" cy="270.73" r="16.79" style="fill:white;fill-opacity:0.3;"/>
    </g>
    <g transform="matrix(2.59902,0,0,2.59902,-118.812,-68.4903)">
        <path d="M381.79,270.73C381.79,270.73 383.14,267.89 384.89,267.73C388.25,267.4 391.69,274.52 391.69,274.52C391.69,274.52 395.3,266.41 402.75,262.79C402.75,262.79 398.43,266.94 394.75,277.89C394.46,278.73 390.53,279.89 389.61,279.4C388.69,278.91 385.48,271.57 381.79,270.73Z" style="fill:rgb(64,123,255);fill-rule:nonzero;"/>
    </g>
    <g transform="matrix(2.59902,0,0,2.59902,-118.812,-68.4903)">
        <path d="M390.62,314.77C390.285,314.77 390.01,314.495 390.01,314.16C390.01,313.825 390.285,313.55 390.62,313.55C396.773,313.544 402.819,311.923 408.15,308.85C408.262,308.739 408.414,308.677 408.571,308.677C408.9,308.677 409.171,308.948 409.171,309.277C409.171,309.539 409,309.772 408.75,309.85C403.239,313.036 396.986,314.716 390.62,314.72L390.62,314.77ZM383.21,314L383.08,314C380.103,313.361 377.217,312.354 374.49,311C374.281,310.897 374.147,310.683 374.147,310.45C374.147,310.114 374.424,309.837 374.76,309.837C374.854,309.837 374.946,309.859 375.03,309.9C377.664,311.207 380.453,312.175 383.33,312.78C383.656,312.85 383.867,313.174 383.8,313.5C383.752,313.787 383.501,313.999 383.21,314ZM372.79,310C372.682,309.998 372.575,309.971 372.48,309.92C366.972,306.732 362.388,302.166 359.18,296.67C359.125,296.576 359.096,296.469 359.096,296.36C359.096,296.023 359.373,295.746 359.71,295.746C359.928,295.746 360.13,295.862 360.24,296.05C362.077,299.227 364.406,302.092 367.14,304.54C368.967,306.183 370.962,307.631 373.09,308.86C373.377,309.028 373.476,309.402 373.31,309.69C373.207,309.881 373.007,310 372.79,310ZM410.35,308.78C410.149,308.778 409.962,308.677 409.85,308.51C409.665,308.232 409.737,307.852 410.01,307.66C412.457,306.028 414.691,304.096 416.66,301.91L416.72,301.83C416.942,301.581 417.33,301.558 417.58,301.78C417.712,301.894 417.788,302.06 417.788,302.234C417.788,302.384 417.732,302.529 417.63,302.64L417.56,302.72C415.531,305 413.222,307.016 410.69,308.72C410.586,308.776 410.468,308.804 410.35,308.8L410.35,308.78ZM421.54,296.78C421.434,296.782 421.33,296.754 421.24,296.7C421.052,296.594 420.935,296.394 420.935,296.178C420.935,296.069 420.964,295.963 421.02,295.87C424.053,290.569 425.649,284.567 425.65,278.46L425.65,278.33C425.647,278.304 425.645,278.278 425.645,278.252C425.645,277.917 425.92,277.642 426.255,277.642C426.59,277.642 426.865,277.917 426.865,278.252C426.865,278.278 426.863,278.304 426.86,278.33L426.86,278.46C426.862,284.775 425.21,290.981 422.07,296.46C421.978,296.672 421.771,296.812 421.54,296.82L421.54,296.78ZM356.67,290.14C356.406,290.143 356.169,289.972 356.09,289.72C355.146,286.827 354.571,283.827 354.38,280.79C354.374,280.755 354.371,280.721 354.371,280.685C354.371,280.351 354.646,280.075 354.981,280.075C355.316,280.075 355.591,280.351 355.591,280.685C355.591,280.697 355.591,280.709 355.59,280.72C355.781,283.651 356.339,286.547 357.25,289.34C357.27,289.401 357.28,289.466 357.28,289.53C357.28,289.793 357.11,290.028 356.86,290.11C356.801,290.143 356.737,290.167 356.67,290.18L356.67,290.14ZM354.91,279.08C354.897,279.081 354.883,279.081 354.87,279.081C354.557,279.081 354.3,278.824 354.3,278.511C354.3,278.511 354.3,278.44 354.3,278.44C354.299,272.099 355.961,265.868 359.12,260.37C359.219,260.154 359.436,260.014 359.675,260.014C360.009,260.014 360.285,260.29 360.285,260.624C360.285,260.752 360.244,260.876 360.17,260.98C357.122,266.294 355.518,272.314 355.52,278.44C355.521,278.454 355.521,278.467 355.521,278.481C355.521,278.821 355.25,279.105 354.91,279.12L354.91,279.08ZM426.18,276.7C425.86,276.701 425.591,276.449 425.57,276.13C425.372,273.195 424.811,270.297 423.9,267.5C423.878,267.438 423.867,267.372 423.867,267.306C423.867,267.045 424.04,266.814 424.29,266.74C424.354,266.717 424.422,266.706 424.49,266.706C424.749,266.706 424.98,266.874 425.06,267.12C426.002,270.014 426.58,273.013 426.78,276.05C426.803,276.381 426.551,276.674 426.22,276.7L426.18,276.7ZM421.43,261.12C421.213,261.12 421.012,261.006 420.9,260.82C417.787,255.517 413.339,251.121 408,248.07C407.713,247.898 407.611,247.525 407.77,247.23C407.942,246.942 408.319,246.843 408.61,247.01C410.828,248.29 412.906,249.798 414.81,251.51C417.624,254.032 420.023,256.982 421.92,260.25C422.086,260.538 421.987,260.912 421.7,261.08C421.617,261.126 421.525,261.154 421.43,261.16L421.43,261.12ZM364.51,255.01L364.02,254.64L363.59,254.2C365.617,251.949 367.914,249.957 370.43,248.27C370.515,248.227 370.608,248.205 370.703,248.205C371.038,248.205 371.313,248.481 371.313,248.815C371.313,248.989 371.239,249.154 371.11,249.27C368.678,250.915 366.461,252.856 364.51,255.05L364.51,255.01ZM372.67,248.2C372.451,248.198 372.249,248.079 372.14,247.89C371.974,247.602 372.073,247.228 372.36,247.06C377.872,243.874 384.124,242.187 390.49,242.17C390.516,242.167 390.542,242.165 390.568,242.165C390.903,242.165 391.178,242.44 391.178,242.775C391.178,243.11 390.903,243.385 390.568,243.385C390.542,243.385 390.516,243.383 390.49,243.38C384.343,243.416 378.311,245.064 373,248.16C372.899,248.216 372.785,248.244 372.67,248.24L372.67,248.2ZM406.36,247.05C406.267,247.05 406.174,247.03 406.09,246.99C403.452,245.689 400.66,244.728 397.78,244.13C397.454,244.06 397.243,243.736 397.31,243.41C397.408,243.124 397.702,242.949 398,243C400.981,243.635 403.87,244.643 406.6,246C406.805,246.101 406.935,246.31 406.935,246.538C406.935,246.633 406.913,246.726 406.87,246.81C406.761,246.986 406.567,247.093 406.36,247.09L406.36,247.05Z" style="fill:rgb(38,50,56);fill-rule:nonzero;"/>
    </g>
    <g transform="matrix(2.59902,0,0,2.59902,-118.812,-68.4903)">
        <path d="M390.62,314.77C390.285,314.77 390.01,314.495 390.01,314.16C390.01,313.825 390.285,313.55 390.62,313.55C396.773,313.544 402.819,311.923 408.15,308.85C408.262,308.739 408.414,308.677 408.571,308.677C408.9,308.677 409.171,308.948 409.171,309.277C409.171,309.539 409,309.772 408.75,309.85C403.239,313.036 396.986,314.716 390.62,314.72L390.62,314.77ZM383.21,314L383.08,314C380.103,313.361 377.217,312.354 374.49,311C374.281,310.897 374.147,310.683 374.147,310.45C374.147,310.114 374.424,309.837 374.76,309.837C374.854,309.837 374.946,309.859 375.03,309.9C377.664,311.207 380.453,312.175 383.33,312.78C383.656,312.85 383.867,313.174 383.8,313.5C383.752,313.787 383.501,313.999 383.21,314ZM372.79,310C372.682,309.998 372.575,309.971 372.48,309.92C366.972,306.732 362.388,302.166 359.18,296.67C359.125,296.576 359.096,296.469 359.096,296.36C359.096,296.023 359.373,295.746 359.71,295.746C359.928,295.746 360.13,295.862 360.24,296.05C362.077,299.227 364.406,302.092 367.14,304.54C368.967,306.183 370.962,307.631 373.09,308.86C373.377,309.028 373.476,309.402 373.31,309.69C373.207,309.881 373.007,310 372.79,310ZM410.35,308.78C410.149,308.778 409.962,308.677 409.85,308.51C409.665,308.232 409.737,307.852 410.01,307.66C412.457,306.028 414.691,304.096 416.66,301.91L416.72,301.83C416.942,301.581 417.33,301.558 417.58,301.78C417.712,301.894 417.788,302.06 417.788,302.234C417.788,302.384 417.732,302.529 417.63,302.64L417.56,302.72C415.531,305 413.222,307.016 410.69,308.72C410.586,308.776 410.468,308.804 410.35,308.8L410.35,308.78ZM421.54,296.78C421.434,296.782 421.33,296.754 421.24,296.7C421.052,296.594 420.935,296.394 420.935,296.178C420.935,296.069 420.964,295.963 421.02,295.87C424.053,290.569 425.649,284.567 425.65,278.46L425.65,278.33C425.647,278.304 425.645,278.278 425.645,278.252C425.645,277.917 425.92,277.642 426.255,277.642C426.59,277.642 426.865,277.917 426.865,278.252C426.865,278.278 426.863,278.304 426.86,278.33L426.86,278.46C426.862,284.775 425.21,290.981 422.07,296.46C421.978,296.672 421.771,296.812 421.54,296.82L421.54,296.78ZM356.67,290.14C356.406,290.143 356.169,289.972 356.09,289.72C355.146,286.827 354.571,283.827 354.38,280.79C354.374,280.755 354.371,280.721 354.371,280.685C354.371,280.351 354.646,280.075 354.981,280.075C355.316,280.075 355.591,280.351 355.591,280.685C355.591,280.697 355.591,280.709 355.59,280.72C355.781,283.651 356.339,286.547 357.25,289.34C357.27,289.401 357.28,289.466 357.28,289.53C357.28,289.793 357.11,290.028 356.86,290.11C356.801,290.143 356.737,290.167 356.67,290.18L356.67,290.14ZM354.91,279.08C354.897,279.081 354.883,279.081 354.87,279.081C354.557,279.081 354.3,278.824 354.3,278.511C354.3,278.511 354.3,278.44 354.3,278.44C354.299,272.099 355.961,265.868 359.12,260.37C359.219,260.154 359.436,260.014 359.675,260.014C360.009,260.014 360.285,260.29 360.285,260.624C360.285,260.752 360.244,260.876 360.17,260.98C357.122,266.294 355.518,272.314 355.52,278.44C355.521,278.454 355.521,278.467 355.521,278.481C355.521,278.821 355.25,279.105 354.91,279.12L354.91,279.08ZM426.18,276.7C425.86,276.701 425.591,276.449 425.57,276.13C425.372,273.195 424.811,270.297 423.9,267.5C423.878,267.438 423.867,267.372 423.867,267.306C423.867,267.045 424.04,266.814 424.29,266.74C424.354,266.717 424.422,266.706 424.49,266.706C424.749,266.706 424.98,266.874 425.06,267.12C426.002,270.014 426.58,273.013 426.78,276.05C426.803,276.381 426.551,276.674 426.22,276.7L426.18,276.7ZM421.43,261.12C421.213,261.12 421.012,261.006 420.9,260.82C417.787,255.517 413.339,251.121 408,248.07C407.713,247.898 407.611,247.525 407.77,247.23C407.942,246.942 408.319,246.843 408.61,247.01C410.828,248.29 412.906,249.798 414.81,251.51C417.624,254.032 420.023,256.982 421.92,260.25C422.086,260.538 421.987,260.912 421.7,261.08C421.617,261.126 421.525,261.154 421.43,261.16L421.43,261.12ZM364.51,255.01L364.02,254.64L363.59,254.2C365.617,251.949 367.914,249.957 370.43,248.27C370.515,248.227 370.608,248.205 370.703,248.205C371.038,248.205 371.313,248.481 371.313,248.815C371.313,248.989 371.239,249.154 371.11,249.27C368.678,250.915 366.461,252.856 364.51,255.05L364.51,255.01ZM372.67,248.2C372.451,248.198 372.249,248.079 372.14,247.89C371.974,247.602 372.073,247.228 372.36,247.06C377.872,243.874 384.124,242.187 390.49,242.17C390.516,242.167 390.542,242.165 390.568,242.165C390.903,242.165 391.178,242.44 391.178,242.775C391.178,243.11 390.903,243.385 390.568,243.385C390.542,243.385 390.516,243.383 390.49,243.38C384.343,243.416 378.311,245.064 373,248.16C372.899,248.216 372.785,248.244 372.67,248.24L372.67,248.2ZM406.36,247.05C406.267,247.05 406.174,247.03 406.09,246.99C403.452,245.689 400.66,244.728 397.78,244.13C397.454,244.06 397.243,243.736 397.31,243.41C397.408,243.124 397.702,242.949 398,243C400.981,243.635 403.87,244.643 406.6,246C406.805,246.101 406.935,246.31 406.935,246.538C406.935,246.633 406.913,246.726 406.87,246.81C406.761,246.986 406.567,247.093 406.36,247.09L406.36,247.05Z" style="fill:white;fill-opacity:0.5;fill-rule:nonzero;"/>
    </g>
    <g transform="matrix(2.59902,0,0,2.59902,-118.812,-68.4903)">
        <path d="M291.53,123.06L296.69,123.06C297.392,123.06 297.97,123.638 297.97,124.34L297.97,126.88L290.24,126.88C290.24,126.88 290.24,124.34 290.24,124.34C290.24,123.638 290.818,123.06 291.52,123.06C291.523,123.06 291.527,123.06 291.53,123.06Z" style="fill:rgb(64,123,255);fill-rule:nonzero;"/>
    </g>
    <g transform="matrix(2.59902,0,0,2.59902,-118.812,-68.4903)">
        <path d="M302.94,111.34L308.1,111.34C308.802,111.34 309.38,111.918 309.38,112.62L309.38,126.88L301.65,126.88C301.65,126.88 301.65,112.62 301.65,112.62C301.65,111.918 302.228,111.34 302.93,111.34C302.933,111.34 302.937,111.34 302.94,111.34Z" style="fill:rgb(64,123,255);fill-rule:nonzero;"/>
    </g>
    <g transform="matrix(2.59902,0,0,2.59902,-118.812,-68.4903)">
        <path d="M314.36,113.88L319.52,113.88C320.222,113.88 320.8,114.458 320.8,115.16L320.8,126.87L313.07,126.87L313.07,115.17C313.07,115.167 313.07,115.163 313.07,115.16C313.07,114.458 313.648,113.88 314.35,113.88C314.353,113.88 314.357,113.88 314.36,113.88Z" style="fill:rgb(64,123,255);fill-rule:nonzero;"/>
    </g>
    <g transform="matrix(2.59902,0,0,2.59902,-118.812,-68.4903)">
        <path d="M325.77,100.89L330.93,100.89C331.632,100.89 332.21,101.468 332.21,102.17L332.21,126.88L324.48,126.88C324.48,126.88 324.48,102.17 324.48,102.17C324.48,101.468 325.058,100.89 325.76,100.89C325.763,100.89 325.767,100.89 325.77,100.89Z" style="fill:rgb(64,123,255);fill-rule:nonzero;"/>
    </g>
    <g transform="matrix(2.59902,0,0,2.59902,-118.812,-68.4903)">
        <path d="M332.25,82.64L330.25,83.34L327.32,84.36L328.75,85.43L314.78,104.7L302.43,99.16L287.08,116.89L290.08,119.34L303.47,103.86L316.07,109.5L331.85,87.72L333.1,88.66L333.37,82.26L332.25,82.64Z" style="fill:rgb(64,123,255);fill-rule:nonzero;"/>
    </g>
    <g transform="matrix(2.59902,0,0,2.59902,-118.812,-68.4903)">
        <path d="M291.53,123.06L296.69,123.06C297.392,123.06 297.97,123.638 297.97,124.34L297.97,126.88L290.24,126.88C290.24,126.88 290.24,124.34 290.24,124.34C290.24,123.638 290.818,123.06 291.52,123.06C291.523,123.06 291.527,123.06 291.53,123.06Z" style="fill:white;fill-opacity:0.6;fill-rule:nonzero;"/>
    </g>
    <g transform="matrix(2.59902,0,0,2.59902,-118.812,-68.4903)">
        <path d="M302.94,111.34L308.1,111.34C308.802,111.34 309.38,111.918 309.38,112.62L309.38,126.88L301.65,126.88C301.65,126.88 301.65,112.62 301.65,112.62C301.65,111.918 302.228,111.34 302.93,111.34C302.933,111.34 302.937,111.34 302.94,111.34Z" style="fill:white;fill-opacity:0.5;fill-rule:nonzero;"/>
    </g>
    <g transform="matrix(2.59902,0,0,2.59902,-118.812,-68.4903)">
        <path d="M314.36,113.88L319.52,113.88C320.222,113.88 320.8,114.458 320.8,115.16L320.8,126.87L313.07,126.87L313.07,115.17C313.07,115.167 313.07,115.163 313.07,115.16C313.07,114.458 313.648,113.88 314.35,113.88C314.353,113.88 314.357,113.88 314.36,113.88Z" style="fill:white;fill-opacity:0.3;fill-rule:nonzero;"/>
    </g>
    <g transform="matrix(2.59902,0,0,2.59902,-118.812,-68.4903)">
        <path d="M325.77,100.89L330.93,100.89C331.632,100.89 332.21,101.468 332.21,102.17L332.21,126.88L324.48,126.88C324.48,126.88 324.48,102.17 324.48,102.17C324.48,101.468 325.058,100.89 325.76,100.89C325.763,100.89 325.767,100.89 325.77,100.89Z" style="fill:white;fill-opacity:0.2;fill-rule:nonzero;"/>
    </g>
    <g transform="matrix(2.59902,0,0,2.59902,-118.812,-68.4903)">
        <path d="M332.25,82.64L330.25,83.34L327.32,84.36L328.75,85.43L314.78,104.7L302.43,99.16L287.08,116.89L290.08,119.34L303.47,103.86L316.07,109.5L331.85,87.72L333.1,88.66L333.37,82.26L332.25,82.64Z" style="fill-opacity:0.1;fill-rule:nonzero;"/>
    </g>
    <g transform="matrix(2.59902,0,0,2.59902,-118.812,-68.4903)">
        <path d="M334.37,129.17L288.76,129.17C288.133,129.17 287.615,128.657 287.61,128.03C287.61,127.399 288.129,126.88 288.76,126.88C288.76,126.88 334.37,126.88 334.37,126.88C334.995,126.88 335.51,127.395 335.51,128.02C335.51,128.023 335.51,128.027 335.51,128.03C335.51,128.655 334.995,129.17 334.37,129.17Z" style="fill:rgb(38,50,56);fill-rule:nonzero;"/>
    </g>
    <g transform="matrix(2.59902,0,0,2.59902,-118.812,-68.4903)">
        <path d="M334.37,129.17L288.76,129.17C288.133,129.17 287.615,128.657 287.61,128.03C287.61,127.399 288.129,126.88 288.76,126.88C288.76,126.88 334.37,126.88 334.37,126.88C334.995,126.88 335.51,127.395 335.51,128.02C335.51,128.023 335.51,128.027 335.51,128.03C335.51,128.655 334.995,129.17 334.37,129.17Z" style="fill:white;fill-opacity:0.3;fill-rule:nonzero;"/>
    </g>
    <g transform="matrix(2.59902,0,0,2.59902,-118.812,-68.4903)">
        <path d="M313.2,145.58C310.525,145.579 307.859,145.28 305.25,144.69C304.94,144.659 304.701,144.395 304.701,144.083C304.701,143.748 304.976,143.473 305.311,143.473C305.382,143.473 305.453,143.486 305.52,143.51C308.387,144.154 311.323,144.437 314.26,144.35C314.28,144.348 314.3,144.347 314.32,144.347C314.633,144.347 314.89,144.604 314.89,144.917C314.89,144.925 314.89,144.932 314.89,144.94C314.89,144.947 314.89,144.953 314.89,144.96C314.89,145.286 314.625,145.555 314.3,145.56C313.93,145.58 313.57,145.58 313.2,145.58ZM316.52,145.43C316.51,145.43 316.5,145.431 316.49,145.431C316.155,145.431 315.879,145.155 315.879,144.82C315.879,144.496 316.137,144.226 316.46,144.21C318.907,143.977 321.323,143.491 323.67,142.76C327.173,141.664 330.483,140.028 333.48,137.91C333.583,137.838 333.705,137.8 333.83,137.8C334.029,137.8 334.216,137.897 334.33,138.06C334.401,138.161 334.44,138.282 334.44,138.406C334.44,138.603 334.342,138.788 334.18,138.9C328.986,142.577 322.916,144.826 316.58,145.42L316.52,145.43ZM298.33,142.32C298.24,142.32 298.151,142.3 298.07,142.26C292.282,139.596 287.295,135.457 283.61,130.26C283.538,130.157 283.5,130.035 283.5,129.91C283.5,129.711 283.597,129.524 283.76,129.41C283.861,129.339 283.982,129.3 284.106,129.3C284.303,129.3 284.488,129.398 284.6,129.56C288.174,134.574 293.002,138.564 298.6,141.13C298.811,141.231 298.946,141.446 298.946,141.68C298.946,142.01 298.679,142.283 298.35,142.29L298.33,142.32ZM339.43,134.09C339.278,134.092 339.131,134.034 339.02,133.93C338.904,133.817 338.838,133.662 338.838,133.5C338.838,133.338 338.904,133.183 339.02,133.07C341.014,130.907 342.728,128.502 344.12,125.91C344.281,125.622 344.649,125.514 344.94,125.67C345.138,125.773 345.263,125.979 345.263,126.202C345.263,126.303 345.238,126.402 345.19,126.49C343.75,129.171 341.98,131.66 339.92,133.9C339.794,134.034 339.614,134.104 339.43,134.09ZM282.87,128.68C282.658,128.68 282.461,128.57 282.35,128.39C280.753,125.802 279.486,123.023 278.58,120.12L278.58,120.02C278.56,119.959 278.551,119.896 278.551,119.833C278.551,119.566 278.725,119.329 278.98,119.25C279.298,119.153 279.64,119.333 279.74,119.65L279.74,119.76C280.618,122.569 281.844,125.256 283.39,127.76C283.449,127.856 283.481,127.967 283.481,128.08C283.481,128.292 283.37,128.489 283.19,128.6C283.093,128.655 282.982,128.683 282.87,128.68ZM345.62,124.81C345.53,124.81 345.441,124.79 345.36,124.75C345.059,124.606 344.925,124.245 345.06,123.94C347.173,119.348 348.271,114.355 348.28,109.3C348.28,108.23 348.28,107.13 348.13,106.06C348.101,105.728 348.349,105.431 348.68,105.4C348.704,105.397 348.727,105.396 348.751,105.396C349.061,105.396 349.321,105.64 349.34,105.95C349.44,107.06 349.5,108.19 349.5,109.3C349.49,114.53 348.354,119.698 346.17,124.45C346.073,124.667 345.857,124.807 345.62,124.81ZM277.67,113.13C277.361,113.126 277.1,112.888 277.07,112.58C276.97,111.48 276.92,110.37 276.92,109.28C276.931,104.032 278.074,98.847 280.27,94.08C280.353,93.832 280.587,93.664 280.848,93.664C281.183,93.664 281.458,93.939 281.458,94.274C281.458,94.385 281.428,94.495 281.37,94.59C279.247,99.197 278.141,104.208 278.13,109.28C278.13,110.34 278.18,111.41 278.28,112.47C278.309,112.802 278.061,113.099 277.73,113.13L277.67,113.13ZM346.67,98.87L347.25,98.7L346.65,98.83C345.789,96.022 344.576,93.334 343.04,90.83C342.862,90.547 342.948,90.169 343.23,89.99C343.327,89.928 343.439,89.895 343.553,89.895C343.765,89.895 343.962,90.008 344.07,90.19C345.658,92.762 346.914,95.524 347.81,98.41L347.25,98.65L346.67,98.87ZM281.8,92.94C281.702,92.941 281.606,92.917 281.52,92.87C281.321,92.764 281.196,92.557 281.196,92.331C281.196,92.229 281.221,92.129 281.27,92.04C282.715,89.366 284.489,86.883 286.55,84.65C286.786,84.415 287.174,84.415 287.41,84.65C287.526,84.763 287.592,84.918 287.592,85.08C287.592,85.242 287.526,85.397 287.41,85.51C285.416,87.672 283.7,90.074 282.3,92.66C282.196,92.826 282.016,92.931 281.82,92.94L281.8,92.94ZM342.32,89.29C342.123,89.294 341.935,89.2 341.82,89.04C338.251,84.016 333.422,80.018 327.82,77.45C327.604,77.351 327.464,77.133 327.464,76.895C327.464,76.56 327.74,76.284 328.075,76.284C328.163,76.284 328.25,76.303 328.33,76.34C334.11,79.007 339.09,83.146 342.77,88.34C342.964,88.612 342.901,88.995 342.63,89.19C342.544,89.249 342.444,89.283 342.34,89.29L342.32,89.29ZM292.61,80.75C292.411,80.75 292.224,80.653 292.11,80.49C292.037,80.388 291.997,80.265 291.997,80.139C291.997,79.945 292.091,79.762 292.25,79.65C295.338,77.466 298.75,75.779 302.36,74.65C304.804,73.889 307.321,73.386 309.87,73.15C309.906,73.143 309.943,73.14 309.98,73.14C310.314,73.14 310.59,73.415 310.59,73.75C310.59,74.081 310.321,74.354 309.99,74.36C303.875,74.937 298.015,77.098 292.99,80.63C292.887,80.709 292.76,80.751 292.63,80.75L292.61,80.75ZM321.06,75.1L321,75.1C318.131,74.449 315.191,74.16 312.25,74.24C312.24,74.241 312.23,74.241 312.22,74.241C311.896,74.241 311.63,73.974 311.63,73.651C311.63,73.651 311.63,73.637 311.63,73.63C311.63,73.304 311.895,73.035 312.22,73.03C315.262,72.937 318.303,73.233 321.27,73.91C321.538,73.98 321.726,74.224 321.726,74.5C321.726,74.829 321.459,75.102 321.13,75.11L321.06,75.1Z" style="fill:rgb(38,50,56);fill-rule:nonzero;"/>
    </g>
    <g transform="matrix(2.59902,0,0,2.59902,-118.812,-68.4903)">
        <path d="M313.2,145.58C310.525,145.579 307.859,145.28 305.25,144.69C304.94,144.659 304.701,144.395 304.701,144.083C304.701,143.748 304.976,143.473 305.311,143.473C305.382,143.473 305.453,143.486 305.52,143.51C308.387,144.154 311.323,144.437 314.26,144.35C314.28,144.348 314.3,144.347 314.32,144.347C314.633,144.347 314.89,144.604 314.89,144.917C314.89,144.925 314.89,144.932 314.89,144.94C314.89,144.947 314.89,144.953 314.89,144.96C314.89,145.286 314.625,145.555 314.3,145.56C313.93,145.58 313.57,145.58 313.2,145.58ZM316.52,145.43C316.51,145.43 316.5,145.431 316.49,145.431C316.155,145.431 315.879,145.155 315.879,144.82C315.879,144.496 316.137,144.226 316.46,144.21C318.907,143.977 321.323,143.491 323.67,142.76C327.173,141.664 330.483,140.028 333.48,137.91C333.583,137.838 333.705,137.8 333.83,137.8C334.029,137.8 334.216,137.897 334.33,138.06C334.401,138.161 334.44,138.282 334.44,138.406C334.44,138.603 334.342,138.788 334.18,138.9C328.986,142.577 322.916,144.826 316.58,145.42L316.52,145.43ZM298.33,142.32C298.24,142.32 298.151,142.3 298.07,142.26C292.282,139.596 287.295,135.457 283.61,130.26C283.538,130.157 283.5,130.035 283.5,129.91C283.5,129.711 283.597,129.524 283.76,129.41C283.861,129.339 283.982,129.3 284.106,129.3C284.303,129.3 284.488,129.398 284.6,129.56C288.174,134.574 293.002,138.564 298.6,141.13C298.811,141.231 298.946,141.446 298.946,141.68C298.946,142.01 298.679,142.283 298.35,142.29L298.33,142.32ZM339.43,134.09C339.278,134.092 339.131,134.034 339.02,133.93C338.904,133.817 338.838,133.662 338.838,133.5C338.838,133.338 338.904,133.183 339.02,133.07C341.014,130.907 342.728,128.502 344.12,125.91C344.281,125.622 344.649,125.514 344.94,125.67C345.138,125.773 345.263,125.979 345.263,126.202C345.263,126.303 345.238,126.402 345.19,126.49C343.75,129.171 341.98,131.66 339.92,133.9C339.794,134.034 339.614,134.104 339.43,134.09ZM282.87,128.68C282.658,128.68 282.461,128.57 282.35,128.39C280.753,125.802 279.486,123.023 278.58,120.12L278.58,120.02C278.56,119.959 278.551,119.896 278.551,119.833C278.551,119.566 278.725,119.329 278.98,119.25C279.298,119.153 279.64,119.333 279.74,119.65L279.74,119.76C280.618,122.569 281.844,125.256 283.39,127.76C283.449,127.856 283.481,127.967 283.481,128.08C283.481,128.292 283.37,128.489 283.19,128.6C283.093,128.655 282.982,128.683 282.87,128.68ZM345.62,124.81C345.53,124.81 345.441,124.79 345.36,124.75C345.059,124.606 344.925,124.245 345.06,123.94C347.173,119.348 348.271,114.355 348.28,109.3C348.28,108.23 348.28,107.13 348.13,106.06C348.101,105.728 348.349,105.431 348.68,105.4C348.704,105.397 348.727,105.396 348.751,105.396C349.061,105.396 349.321,105.64 349.34,105.95C349.44,107.06 349.5,108.19 349.5,109.3C349.49,114.53 348.354,119.698 346.17,124.45C346.073,124.667 345.857,124.807 345.62,124.81ZM277.67,113.13C277.361,113.126 277.1,112.888 277.07,112.58C276.97,111.48 276.92,110.37 276.92,109.28C276.931,104.032 278.074,98.847 280.27,94.08C280.353,93.832 280.587,93.664 280.848,93.664C281.183,93.664 281.458,93.939 281.458,94.274C281.458,94.385 281.428,94.495 281.37,94.59C279.247,99.197 278.141,104.208 278.13,109.28C278.13,110.34 278.18,111.41 278.28,112.47C278.309,112.802 278.061,113.099 277.73,113.13L277.67,113.13ZM346.67,98.87L347.25,98.7L346.65,98.83C345.789,96.022 344.576,93.334 343.04,90.83C342.862,90.547 342.948,90.169 343.23,89.99C343.327,89.928 343.439,89.895 343.553,89.895C343.765,89.895 343.962,90.008 344.07,90.19C345.658,92.762 346.914,95.524 347.81,98.41L347.25,98.65L346.67,98.87ZM281.8,92.94C281.702,92.941 281.606,92.917 281.52,92.87C281.321,92.764 281.196,92.557 281.196,92.331C281.196,92.229 281.221,92.129 281.27,92.04C282.715,89.366 284.489,86.883 286.55,84.65C286.786,84.415 287.174,84.415 287.41,84.65C287.526,84.763 287.592,84.918 287.592,85.08C287.592,85.242 287.526,85.397 287.41,85.51C285.416,87.672 283.7,90.074 282.3,92.66C282.196,92.826 282.016,92.931 281.82,92.94L281.8,92.94ZM342.32,89.29C342.123,89.294 341.935,89.2 341.82,89.04C338.251,84.016 333.422,80.018 327.82,77.45C327.604,77.351 327.464,77.133 327.464,76.895C327.464,76.56 327.74,76.284 328.075,76.284C328.163,76.284 328.25,76.303 328.33,76.34C334.11,79.007 339.09,83.146 342.77,88.34C342.964,88.612 342.901,88.995 342.63,89.19C342.544,89.249 342.444,89.283 342.34,89.29L342.32,89.29ZM292.61,80.75C292.411,80.75 292.224,80.653 292.11,80.49C292.037,80.388 291.997,80.265 291.997,80.139C291.997,79.945 292.091,79.762 292.25,79.65C295.338,77.466 298.75,75.779 302.36,74.65C304.804,73.889 307.321,73.386 309.87,73.15C309.906,73.143 309.943,73.14 309.98,73.14C310.314,73.14 310.59,73.415 310.59,73.75C310.59,74.081 310.321,74.354 309.99,74.36C303.875,74.937 298.015,77.098 292.99,80.63C292.887,80.709 292.76,80.751 292.63,80.75L292.61,80.75ZM321.06,75.1L321,75.1C318.131,74.449 315.191,74.16 312.25,74.24C312.24,74.241 312.23,74.241 312.22,74.241C311.896,74.241 311.63,73.974 311.63,73.651C311.63,73.651 311.63,73.637 311.63,73.63C311.63,73.304 311.895,73.035 312.22,73.03C315.262,72.937 318.303,73.233 321.27,73.91C321.538,73.98 321.726,74.224 321.726,74.5C321.726,74.829 321.459,75.102 321.13,75.11L321.06,75.1Z" style="fill:white;fill-opacity:0.5;fill-rule:nonzero;"/>
    </g>
    <g transform="matrix(2.59902,0,0,2.59902,-118.812,-68.4903)">
        <path d="M109,163.49C106.71,159.41 102.28,157.55 99.09,159.33C95.9,161.11 95.16,165.87 97.45,169.95C99.74,174.03 104.17,175.95 107.36,174.12C110.55,172.29 111.28,167.58 109,163.49Z" style="fill:rgb(64,123,255);fill-rule:nonzero;"/>
    </g>
    <g transform="matrix(2.59902,0,0,2.59902,-118.812,-68.4903)">
        <path d="M134.92,149.18L127.07,134.74C127.07,134.74 121.59,146.51 113.7,150.92L117.7,158.07L118.33,159.2L122.33,166.36C130.21,161.96 143.11,163.44 143.11,163.44L134.92,149.18Z" style="fill:rgb(64,123,255);fill-rule:nonzero;"/>
    </g>
    <g transform="matrix(2.59902,0,0,2.59902,-118.812,-68.4903)">
        <path d="M109,163.49C106.71,159.41 102.28,157.55 99.09,159.33C95.9,161.11 95.16,165.87 97.45,169.95C99.74,174.03 104.17,175.95 107.36,174.12C110.55,172.29 111.28,167.58 109,163.49Z" style="fill:white;fill-opacity:0.8;fill-rule:nonzero;"/>
    </g>
    <g transform="matrix(2.59902,0,0,2.59902,-118.812,-68.4903)">
        <path d="M134.92,149.18L127.07,134.74C127.07,134.74 121.59,146.51 113.7,150.92L117.7,158.07L118.33,159.2L122.33,166.36C130.21,161.96 143.11,163.44 143.11,163.44L134.92,149.18Z" style="fill:white;fill-opacity:0.8;fill-rule:nonzero;"/>
    </g>
    <g transform="matrix(2.59902,0,0,2.59902,-118.812,-68.4903)">
        <path d="M108.46,172C108.46,172 114.14,180.22 119.46,183.23C119.84,183.432 120.316,183.33 120.58,182.99L125.1,177.38C125.223,177.222 125.291,177.027 125.291,176.826C125.291,176.477 125.087,176.157 124.77,176.01C122.53,175.01 117.32,172.49 114.32,168.94C110.39,164.28 108.46,172 108.46,172Z" style="fill:rgb(64,123,255);fill-rule:nonzero;"/>
    </g>
    <g transform="matrix(2.59902,0,0,2.59902,-118.812,-68.4903)">
        <path d="M108.46,172C108.46,172 114.14,180.22 119.46,183.23C119.84,183.432 120.316,183.33 120.58,182.99L125.1,177.38C125.223,177.222 125.291,177.027 125.291,176.826C125.291,176.477 125.087,176.157 124.77,176.01C122.53,175.01 117.32,172.49 114.32,168.94C110.39,164.28 108.46,172 108.46,172Z" style="fill-opacity:0.3;fill-rule:nonzero;"/>
    </g>
    <g transform="matrix(2.59902,0,0,2.59902,-118.812,-68.4903)">
        <path d="M143,163.86C141.19,164.86 136.06,159.14 131.55,151.06C127.04,142.98 124.83,135.61 126.64,134.6C128.45,133.59 133.57,139.32 138.09,147.4C142.61,155.48 144.85,162.84 143,163.86Z" style="fill:white;fill-rule:nonzero;"/>
    </g>
    <g transform="matrix(2.59902,0,0,2.59902,-118.812,-68.4903)">
        <path d="M142.3,161.47C140.95,162.23 136.95,157.72 133.18,151.24C132.96,150.87 132.75,150.49 132.53,150.11C132.31,149.73 132.02,149.19 131.79,148.75C128.32,142.21 126.62,136.57 127.96,135.82C129.3,135.07 133.79,140.1 137.75,147.19C141.71,154.28 143.74,160.67 142.3,161.47Z" style="fill-opacity:0.4;fill-rule:nonzero;"/>
    </g>
    <g transform="matrix(2.59902,0,0,2.59902,-118.812,-68.4903)">
        <path d="M106.62,175.62C106.62,175.62 104.68,174.24 101.16,167.95C97.36,161.14 97.46,159.23 97.46,159.23L115.07,149.39C115.07,149.39 115.28,151.86 118.85,158.25C122.42,164.64 124.23,165.77 124.23,165.77L106.62,175.62Z" style="fill:rgb(64,123,255);fill-rule:nonzero;"/>
    </g>
    <g transform="matrix(2.59902,0,0,2.59902,-118.812,-68.4903)">
        <path d="M133.18,151.24C132.96,150.87 132.75,150.49 132.53,150.11C132.31,149.73 132.02,149.19 131.79,148.75L133.61,148.17C134.009,148.058 134.435,148.254 134.61,148.63L134.75,148.89C134.983,149.237 134.928,149.707 134.62,149.99L133.18,151.24Z" style="fill:white;fill-rule:nonzero;"/>
    </g>
    <g transform="matrix(2.59902,0,0,2.59902,-118.812,-68.4903)">
        <path d="M133.18,151.24C132.96,150.87 132.75,150.49 132.53,150.11C132.31,149.73 132.02,149.19 131.79,148.75L133.61,148.17C134.009,148.058 134.435,148.254 134.61,148.63L134.75,148.89C134.983,149.237 134.928,149.707 134.62,149.99L133.18,151.24Z" style="fill-opacity:0.2;fill-rule:nonzero;"/>
    </g>
    <g transform="matrix(2.59902,0,0,2.59902,-118.812,-68.4903)">
        <path d="M119.93,195.5C115.719,195.504 111.539,194.773 107.58,193.34C107.341,193.255 107.18,193.028 107.18,192.774C107.18,192.701 107.194,192.628 107.22,192.56C107.306,192.323 107.532,192.164 107.784,192.164C107.855,192.164 107.924,192.176 107.99,192.2C113.778,194.283 120.013,194.814 126.07,193.74C126.106,193.733 126.143,193.73 126.18,193.73C126.515,193.73 126.79,194.005 126.79,194.34C126.79,194.633 126.578,194.887 126.29,194.94C124.19,195.312 122.062,195.499 119.93,195.5ZM128.37,194.5C128.041,194.492 127.774,194.219 127.774,193.89C127.774,193.614 127.962,193.37 128.23,193.3C131.085,192.603 133.84,191.548 136.43,190.16L136.54,190.1C136.612,190.072 136.688,190.057 136.765,190.057C137.099,190.057 137.375,190.332 137.375,190.667C137.375,190.868 137.276,191.056 137.11,191.17L137.01,191.23C134.325,192.662 131.473,193.757 128.52,194.49L128.37,194.5ZM101.08,190.16C100.966,190.161 100.854,190.126 100.76,190.06C98.169,188.462 95.793,186.54 93.69,184.34C93.562,184.224 93.488,184.06 93.488,183.887C93.488,183.552 93.764,183.277 94.098,183.277C94.281,183.277 94.454,183.359 94.57,183.5C96.607,185.612 98.902,187.46 101.4,189C101.581,189.111 101.691,189.308 101.691,189.52C101.691,189.855 101.416,190.13 101.081,190.13C101.081,190.13 101.08,190.13 101.08,190.13L101.08,190.16ZM143,187C142.821,187.002 142.651,186.92 142.54,186.78C142.444,186.672 142.391,186.533 142.391,186.388C142.391,186.211 142.472,186.042 142.61,185.93C147.291,181.941 150.843,176.792 152.91,171C152.974,170.724 153.221,170.527 153.504,170.527C153.839,170.527 154.114,170.803 154.114,171.137C154.114,171.232 154.092,171.325 154.05,171.41C151.912,177.402 148.231,182.725 143.38,186.84C143.275,186.935 143.141,186.992 143,187ZM92.66,182.81C92.48,182.813 92.308,182.736 92.19,182.6C88.088,177.728 85.33,171.867 84.19,165.6C84.183,165.564 84.18,165.527 84.18,165.49C84.18,165.155 84.455,164.88 84.79,164.88C85.083,164.88 85.337,165.092 85.39,165.38C86.491,171.431 89.153,177.092 93.11,181.8C93.204,181.91 93.255,182.05 93.255,182.195C93.255,182.374 93.176,182.544 93.04,182.66C92.935,182.769 92.791,182.834 92.64,182.84L92.66,182.81ZM154.19,169.69C154.134,169.7 154.076,169.7 154.02,169.69C153.7,169.598 153.511,169.261 153.6,168.94C154.419,166.116 154.879,163.199 154.97,160.26C154.97,160.26 154.97,160.259 154.97,160.259C154.97,159.935 155.236,159.669 155.56,159.669C155.573,159.669 155.587,159.669 155.6,159.67C155.927,159.681 156.19,159.952 156.19,160.28C156.19,160.286 156.19,160.293 156.19,160.3C156.094,163.347 155.617,166.371 154.77,169.3C154.686,169.557 154.44,169.729 154.17,169.72L154.19,169.69ZM84.26,158.69C83.933,158.679 83.67,158.408 83.67,158.08C83.67,158.074 83.67,158.067 83.67,158.06C83.768,155.012 84.249,151.988 85.1,149.06C85.175,148.803 85.412,148.626 85.68,148.626C86.012,148.626 86.284,148.898 86.284,149.23C86.284,149.288 86.276,149.345 86.26,149.4C85.442,152.222 84.979,155.134 84.88,158.07C84.88,158.077 84.88,158.084 84.88,158.091C84.88,158.425 84.605,158.701 84.27,158.701C84.26,158.701 84.25,158.701 84.24,158.7L84.26,158.69ZM155,153.45C154.709,153.449 154.458,153.237 154.41,152.95C153.755,149.361 152.544,145.896 150.82,142.68C149.646,140.495 148.249,138.437 146.65,136.54C146.559,136.432 146.51,136.295 146.51,136.155C146.51,135.975 146.591,135.804 146.73,135.69C146.838,135.594 146.977,135.541 147.122,135.541C147.299,135.541 147.468,135.622 147.58,135.76C151.685,140.63 154.444,146.492 155.58,152.76C155.587,152.796 155.59,152.833 155.59,152.87C155.59,153.163 155.378,153.417 155.09,153.47L155,153.45ZM86.33,147.74C86.264,147.75 86.196,147.75 86.13,147.74C85.887,147.654 85.724,147.423 85.724,147.165C85.724,147.095 85.736,147.026 85.76,146.96C87.913,140.971 91.604,135.653 96.46,131.54C96.57,131.446 96.71,131.395 96.855,131.395C97.19,131.395 97.465,131.67 97.465,132.005C97.465,132.184 97.386,132.354 97.25,132.47C92.555,136.445 88.986,141.583 86.9,147.37C86.807,147.601 86.578,147.749 86.33,147.74ZM145.62,135.1C145.454,135.097 145.296,135.029 145.18,134.91C143.145,132.79 140.85,130.935 138.35,129.39C138.168,129.282 138.055,129.085 138.055,128.873C138.055,128.759 138.088,128.647 138.15,128.55C138.329,128.268 138.707,128.182 138.99,128.36C141.578,129.957 143.954,131.876 146.06,134.07C146.295,134.306 146.295,134.694 146.06,134.93C145.941,135.041 145.783,135.102 145.62,135.1ZM103.06,128.37C102.834,128.375 102.623,128.256 102.51,128.06C102.458,127.97 102.43,127.868 102.43,127.764C102.43,127.551 102.545,127.355 102.73,127.25L103.02,127.79L102.78,127.23C105.446,125.797 108.282,124.705 111.22,123.98C111.25,123.975 111.281,123.973 111.312,123.973C111.647,123.973 111.922,124.248 111.922,124.583C111.922,124.843 111.756,125.076 111.51,125.16C108.673,125.864 105.935,126.918 103.36,128.3C103.267,128.348 103.164,128.372 103.06,128.37ZM132,126.25C131.931,126.264 131.859,126.264 131.79,126.25C125.999,124.177 119.765,123.656 113.71,124.74C113.674,124.747 113.637,124.75 113.6,124.75C113.307,124.75 113.053,124.538 113,124.25C112.946,123.919 113.17,123.601 113.5,123.54C119.763,122.421 126.211,122.962 132.2,125.11C132.436,125.2 132.593,125.427 132.593,125.68C132.593,126.009 132.328,126.281 132,126.29L132,126.25Z" style="fill:rgb(38,50,56);fill-rule:nonzero;"/>
    </g>
    <g transform="matrix(2.59902,0,0,2.59902,-118.812,-68.4903)">
        <path d="M119.93,195.5C115.719,195.504 111.539,194.773 107.58,193.34C107.341,193.255 107.18,193.028 107.18,192.774C107.18,192.701 107.194,192.628 107.22,192.56C107.306,192.323 107.532,192.164 107.784,192.164C107.855,192.164 107.924,192.176 107.99,192.2C113.778,194.283 120.013,194.814 126.07,193.74C126.106,193.733 126.143,193.73 126.18,193.73C126.515,193.73 126.79,194.005 126.79,194.34C126.79,194.633 126.578,194.887 126.29,194.94C124.19,195.312 122.062,195.499 119.93,195.5ZM128.37,194.5C128.041,194.492 127.774,194.219 127.774,193.89C127.774,193.614 127.962,193.37 128.23,193.3C131.085,192.603 133.84,191.548 136.43,190.16L136.54,190.1C136.612,190.072 136.688,190.057 136.765,190.057C137.099,190.057 137.375,190.332 137.375,190.667C137.375,190.868 137.276,191.056 137.11,191.17L137.01,191.23C134.325,192.662 131.473,193.757 128.52,194.49L128.37,194.5ZM101.08,190.16C100.966,190.161 100.854,190.126 100.76,190.06C98.169,188.462 95.793,186.54 93.69,184.34C93.562,184.224 93.488,184.06 93.488,183.887C93.488,183.552 93.764,183.277 94.098,183.277C94.281,183.277 94.454,183.359 94.57,183.5C96.607,185.612 98.902,187.46 101.4,189C101.581,189.111 101.691,189.308 101.691,189.52C101.691,189.855 101.416,190.13 101.081,190.13C101.081,190.13 101.08,190.13 101.08,190.13L101.08,190.16ZM143,187C142.821,187.002 142.651,186.92 142.54,186.78C142.444,186.672 142.391,186.533 142.391,186.388C142.391,186.211 142.472,186.042 142.61,185.93C147.291,181.941 150.843,176.792 152.91,171C152.974,170.724 153.221,170.527 153.504,170.527C153.839,170.527 154.114,170.803 154.114,171.137C154.114,171.232 154.092,171.325 154.05,171.41C151.912,177.402 148.231,182.725 143.38,186.84C143.275,186.935 143.141,186.992 143,187ZM92.66,182.81C92.48,182.813 92.308,182.736 92.19,182.6C88.088,177.728 85.33,171.867 84.19,165.6C84.183,165.564 84.18,165.527 84.18,165.49C84.18,165.155 84.455,164.88 84.79,164.88C85.083,164.88 85.337,165.092 85.39,165.38C86.491,171.431 89.153,177.092 93.11,181.8C93.204,181.91 93.255,182.05 93.255,182.195C93.255,182.374 93.176,182.544 93.04,182.66C92.935,182.769 92.791,182.834 92.64,182.84L92.66,182.81ZM154.19,169.69C154.134,169.7 154.076,169.7 154.02,169.69C153.7,169.598 153.511,169.261 153.6,168.94C154.419,166.116 154.879,163.199 154.97,160.26C154.97,160.26 154.97,160.259 154.97,160.259C154.97,159.935 155.236,159.669 155.56,159.669C155.573,159.669 155.587,159.669 155.6,159.67C155.927,159.681 156.19,159.952 156.19,160.28C156.19,160.286 156.19,160.293 156.19,160.3C156.094,163.347 155.617,166.371 154.77,169.3C154.686,169.557 154.44,169.729 154.17,169.72L154.19,169.69ZM84.26,158.69C83.933,158.679 83.67,158.408 83.67,158.08C83.67,158.074 83.67,158.067 83.67,158.06C83.768,155.012 84.249,151.988 85.1,149.06C85.175,148.803 85.412,148.626 85.68,148.626C86.012,148.626 86.284,148.898 86.284,149.23C86.284,149.288 86.276,149.345 86.26,149.4C85.442,152.222 84.979,155.134 84.88,158.07C84.88,158.077 84.88,158.084 84.88,158.091C84.88,158.425 84.605,158.701 84.27,158.701C84.26,158.701 84.25,158.701 84.24,158.7L84.26,158.69ZM155,153.45C154.709,153.449 154.458,153.237 154.41,152.95C153.755,149.361 152.544,145.896 150.82,142.68C149.646,140.495 148.249,138.437 146.65,136.54C146.559,136.432 146.51,136.295 146.51,136.155C146.51,135.975 146.591,135.804 146.73,135.69C146.838,135.594 146.977,135.541 147.122,135.541C147.299,135.541 147.468,135.622 147.58,135.76C151.685,140.63 154.444,146.492 155.58,152.76C155.587,152.796 155.59,152.833 155.59,152.87C155.59,153.163 155.378,153.417 155.09,153.47L155,153.45ZM86.33,147.74C86.264,147.75 86.196,147.75 86.13,147.74C85.887,147.654 85.724,147.423 85.724,147.165C85.724,147.095 85.736,147.026 85.76,146.96C87.913,140.971 91.604,135.653 96.46,131.54C96.57,131.446 96.71,131.395 96.855,131.395C97.19,131.395 97.465,131.67 97.465,132.005C97.465,132.184 97.386,132.354 97.25,132.47C92.555,136.445 88.986,141.583 86.9,147.37C86.807,147.601 86.578,147.749 86.33,147.74ZM145.62,135.1C145.454,135.097 145.296,135.029 145.18,134.91C143.145,132.79 140.85,130.935 138.35,129.39C138.168,129.282 138.055,129.085 138.055,128.873C138.055,128.759 138.088,128.647 138.15,128.55C138.329,128.268 138.707,128.182 138.99,128.36C141.578,129.957 143.954,131.876 146.06,134.07C146.295,134.306 146.295,134.694 146.06,134.93C145.941,135.041 145.783,135.102 145.62,135.1ZM103.06,128.37C102.834,128.375 102.623,128.256 102.51,128.06C102.458,127.97 102.43,127.868 102.43,127.764C102.43,127.551 102.545,127.355 102.73,127.25L103.02,127.79L102.78,127.23C105.446,125.797 108.282,124.705 111.22,123.98C111.25,123.975 111.281,123.973 111.312,123.973C111.647,123.973 111.922,124.248 111.922,124.583C111.922,124.843 111.756,125.076 111.51,125.16C108.673,125.864 105.935,126.918 103.36,128.3C103.267,128.348 103.164,128.372 103.06,128.37ZM132,126.25C131.931,126.264 131.859,126.264 131.79,126.25C125.999,124.177 119.765,123.656 113.71,124.74C113.674,124.747 113.637,124.75 113.6,124.75C113.307,124.75 113.053,124.538 113,124.25C112.946,123.919 113.17,123.601 113.5,123.54C119.763,122.421 126.211,122.962 132.2,125.11C132.436,125.2 132.593,125.427 132.593,125.68C132.593,126.009 132.328,126.281 132,126.29L132,126.25Z" style="fill:white;fill-opacity:0.5;fill-rule:nonzero;"/>
    </g>
    <g transform="matrix(2.59902,0,0,2.59902,-118.812,-68.4903)">
        <rect x="111.57" y="336.38" width="20.64" height="8.97" style="fill:rgb(38,50,56);"/>
    </g>
    <g transform="matrix(2.59902,0,0,2.59902,-118.812,-68.4903)">
        <rect x="111.57" y="336.38" width="20.64" height="8.97" style="fill:white;fill-opacity:0.6;"/>
    </g>
    <g transform="matrix(2.59902,0,0,2.59902,-118.812,-68.4903)">
        <path d="M109.17,337.29C109.17,337.29 104.09,330.18 104.09,326.46C104.09,322.74 107.09,320.71 109.17,322.06C109.17,322.06 108.17,314.89 109.17,312.39C110.17,309.89 115.26,311.39 115.26,311.39C115.994,309.925 117.512,309.009 119.15,309.04C120.827,309.031 122.383,309.932 123.21,311.39C124.35,310.347 125.954,309.968 127.44,310.39C130.15,311.05 129.81,312.52 129.81,312.52C129.81,312.52 133.7,312.52 134.55,313.73C135.4,314.94 137.09,331.01 133.55,336.09C130.01,341.17 114.58,342.87 109.17,337.29Z" style="fill:rgb(64,123,255);fill-rule:nonzero;"/>
    </g>
    <g transform="matrix(2.59902,0,0,2.59902,-118.812,-68.4903)">
        <path d="M135.63,327.21C135.45,330.8 134.86,334.21 133.54,336.1C129.98,341.18 114.59,342.87 109.17,337.29C109.17,337.29 104.09,330.18 104.09,326.46C104.09,322.74 107.15,320.71 109.17,322.06C109.17,322.06 108.17,314.89 109.17,312.39C110.17,309.89 115.27,311.39 115.27,311.39C116.006,309.929 117.525,309.02 119.16,309.06C120.811,309.069 122.338,309.958 123.16,311.39C124.296,310.34 125.904,309.96 127.39,310.39C130.1,311.04 129.76,312.5 129.76,312.5C129.76,312.5 133.66,312.5 134.5,313.71C135.08,314.5 136,321.12 135.63,327.21Z" style="fill:white;fill-opacity:0.7;fill-rule:nonzero;"/>
    </g>
    <g transform="matrix(2.59902,0,0,2.59902,-118.812,-68.4903)">
        <path d="M135.63,327.21C135.18,327.03 132.78,326.11 132.1,327.45C131.42,328.79 124.99,335.24 122.58,332.83C120.17,330.42 113.21,328.13 113.21,328.13C114.223,328.13 115.218,327.868 116.1,327.37C119.03,325.72 118.52,323.18 116.95,323.3C116.56,323.3 109.17,322.06 109.17,322.06C109.17,322.06 114.59,321.91 115.17,321.15C115.75,320.39 115.29,313.67 115.81,313.8C116.33,313.93 116.05,320.65 116.18,321.8C116.31,322.95 121.03,323 121.66,322.36C122.29,321.72 122.13,313.14 123.04,313.71C123.95,314.28 122.51,322.56 123.42,323.06C124.33,323.56 126.3,324.06 127.16,323.55C128.02,323.04 128.8,314.26 129.31,314.64C129.82,315.02 129.12,322.92 129.38,323.55C129.64,324.18 131.15,324.21 132.3,323.95C133.45,323.69 134.5,313.74 134.5,313.74C135.08,314.5 136,321.12 135.63,327.21Z" style="fill-opacity:0.1;fill-rule:nonzero;"/>
    </g>
    <g transform="matrix(2.59902,0,0,2.59902,-118.812,-68.4903)">
        <path d="M111.57,342.72C111.57,342.72 121.75,345.9 132.21,342.72L133.62,343.43L133.62,354.43C125.789,355.484 117.851,355.484 110.02,354.43L110.72,343.52L111.57,342.72Z" style="fill:rgb(64,123,255);fill-rule:nonzero;"/>
    </g>
    <g transform="matrix(2.59902,0,0,2.59902,-118.812,-68.4903)">
        <path d="M119.85,368.4C119.19,368.4 118.53,368.4 117.85,368.34C117.527,368.324 117.269,368.054 117.269,367.731C117.269,367.72 117.269,367.71 117.27,367.7C117.285,367.382 117.551,367.129 117.869,367.129C117.883,367.129 117.896,367.129 117.91,367.13C124.054,367.451 130.178,366.173 135.68,363.42C135.748,363.395 135.82,363.382 135.893,363.382C136.227,363.382 136.503,363.657 136.503,363.992C136.503,364.196 136.4,364.387 136.23,364.5C132.852,366.223 129.225,367.404 125.48,368C123.616,368.278 121.734,368.411 119.85,368.4ZM115.68,368.15L115.6,368.15C112.58,367.788 109.617,367.049 106.78,365.95C106.475,365.822 106.323,365.47 106.44,365.16C106.53,364.925 106.757,364.769 107.009,364.769C107.085,364.769 107.16,364.783 107.23,364.81C109.969,365.877 112.831,366.593 115.75,366.94C116.078,366.981 116.315,367.282 116.28,367.61C116.245,367.914 115.986,368.147 115.68,368.15ZM100.38,362.58C100.259,362.581 100.141,362.546 100.04,362.48C94.714,358.989 90.397,354.161 87.52,348.48C87.477,348.395 87.454,348.3 87.454,348.205C87.454,347.975 87.585,347.763 87.79,347.66C87.874,347.617 87.967,347.595 88.062,347.595C88.29,347.595 88.499,347.725 88.6,347.93C91.385,353.415 95.562,358.074 100.71,361.44C100.882,361.553 100.985,361.745 100.985,361.95C100.985,362.283 100.713,362.557 100.38,362.56L100.38,362.58ZM142.25,360.53C142.064,360.529 141.887,360.445 141.77,360.3C141.684,360.193 141.638,360.061 141.638,359.924C141.638,359.739 141.724,359.564 141.87,359.45C144.158,357.601 146.207,355.474 147.97,353.12C148.086,352.96 148.272,352.866 148.47,352.866C148.81,352.866 149.089,353.145 149.089,353.485C149.089,353.616 149.047,353.744 148.97,353.85C147.15,356.286 145.03,358.484 142.66,360.39C142.545,360.484 142.399,360.534 142.25,360.53ZM149.74,352.26C149.622,352.262 149.507,352.227 149.41,352.16C149.236,352.05 149.13,351.858 149.13,351.652C149.13,351.534 149.165,351.418 149.23,351.32C152.605,346.176 154.564,340.232 154.91,334.09C154.928,333.769 155.198,333.514 155.52,333.514C155.855,333.514 156.131,333.79 156.131,334.125C156.131,334.137 156.131,334.148 156.13,334.16C155.766,340.518 153.738,346.671 150.25,352C150.135,352.167 149.943,352.265 149.74,352.26ZM87.11,346.8C86.867,346.797 86.648,346.652 86.55,346.43C85.357,343.635 84.517,340.703 84.05,337.7L84.05,337.57C84.002,337.241 84.232,336.931 84.56,336.88C84.592,336.875 84.624,336.872 84.656,336.872C84.954,336.872 85.209,337.095 85.25,337.39L85.25,337.51C85.7,340.43 86.513,343.282 87.67,346C87.801,346.307 87.657,346.668 87.35,346.8C87.271,346.819 87.189,346.819 87.11,346.8ZM84.28,330.64C83.949,330.619 83.693,330.331 83.71,330C84.082,323.645 86.12,317.498 89.62,312.18C89.731,312.01 89.92,311.907 90.123,311.907C90.243,311.907 90.361,311.943 90.46,312.01C90.739,312.192 90.82,312.57 90.64,312.85C87.257,317.988 85.287,323.928 84.93,330.07C84.91,330.389 84.641,330.641 84.321,330.641C84.307,330.641 84.294,330.641 84.28,330.64ZM154.55,326.77L155.15,326.68L154.54,326.73C154.094,323.838 153.288,321.012 152.14,318.32C152.115,318.252 152.102,318.18 152.102,318.108C152.102,317.773 152.377,317.498 152.712,317.498C152.945,317.498 153.158,317.631 153.26,317.84C154.445,320.619 155.278,323.535 155.74,326.52L155.15,326.68L154.55,326.77ZM151.76,316.66C151.532,316.662 151.322,316.533 151.22,316.33C148.444,310.837 144.274,306.168 139.13,302.79C139.007,302.675 138.938,302.514 138.938,302.345C138.938,302.011 139.213,301.735 139.548,301.735C139.635,301.735 139.721,301.754 139.8,301.79C145.123,305.278 149.435,310.107 152.3,315.79C152.345,315.876 152.369,315.972 152.369,316.07C152.369,316.3 152.237,316.51 152.03,316.61C151.945,316.646 151.853,316.663 151.76,316.66ZM91.38,311.29C91.247,311.29 91.118,311.248 91.01,311.17C90.745,310.969 90.691,310.587 90.89,310.32C92.717,307.889 94.84,305.695 97.21,303.79C97.319,303.702 97.455,303.654 97.595,303.654C97.93,303.654 98.206,303.93 98.206,304.265C98.206,304.449 98.123,304.624 97.98,304.74C95.684,306.579 93.628,308.699 91.86,311.05C91.747,311.201 91.569,311.29 91.38,311.29ZM103.87,300.84C103.537,300.838 103.264,300.563 103.264,300.23C103.264,300.004 103.39,299.795 103.59,299.69C106.964,297.998 110.581,296.841 114.31,296.26C116.847,295.87 119.417,295.742 121.98,295.88C122.311,295.901 122.567,296.189 122.55,296.52C122.546,296.841 122.281,297.102 121.96,297.102C121.943,297.102 121.927,297.101 121.91,297.1C115.768,296.761 109.642,298.029 104.14,300.78C104.055,300.819 103.963,300.839 103.87,300.84ZM132.87,299.47C132.797,299.484 132.723,299.484 132.65,299.47C129.912,298.4 127.049,297.681 124.13,297.33C123.835,297.283 123.616,297.026 123.616,296.728C123.616,296.393 123.891,296.118 124.226,296.118C124.244,296.118 124.262,296.118 124.28,296.12C127.302,296.484 130.266,297.23 133.1,298.34C133.409,298.464 133.562,298.82 133.44,299.13C133.332,299.358 133.091,299.494 132.84,299.47L132.87,299.47Z" style="fill:rgb(38,50,56);fill-rule:nonzero;"/>
    </g>
    <g transform="matrix(2.59902,0,0,2.59902,-118.812,-68.4903)">
        <path d="M119.85,368.4C119.19,368.4 118.53,368.4 117.85,368.34C117.527,368.324 117.269,368.054 117.269,367.731C117.269,367.72 117.269,367.71 117.27,367.7C117.285,367.382 117.551,367.129 117.869,367.129C117.883,367.129 117.896,367.129 117.91,367.13C124.054,367.451 130.178,366.173 135.68,363.42C135.748,363.395 135.82,363.382 135.893,363.382C136.227,363.382 136.503,363.657 136.503,363.992C136.503,364.196 136.4,364.387 136.23,364.5C132.852,366.223 129.225,367.404 125.48,368C123.616,368.278 121.734,368.411 119.85,368.4ZM115.68,368.15L115.6,368.15C112.58,367.788 109.617,367.049 106.78,365.95C106.475,365.822 106.323,365.47 106.44,365.16C106.53,364.925 106.757,364.769 107.009,364.769C107.085,364.769 107.16,364.783 107.23,364.81C109.969,365.877 112.831,366.593 115.75,366.94C116.078,366.981 116.315,367.282 116.28,367.61C116.245,367.914 115.986,368.147 115.68,368.15ZM100.38,362.58C100.259,362.581 100.141,362.546 100.04,362.48C94.714,358.989 90.397,354.161 87.52,348.48C87.477,348.395 87.454,348.3 87.454,348.205C87.454,347.975 87.585,347.763 87.79,347.66C87.874,347.617 87.967,347.595 88.062,347.595C88.29,347.595 88.499,347.725 88.6,347.93C91.385,353.415 95.562,358.074 100.71,361.44C100.882,361.553 100.985,361.745 100.985,361.95C100.985,362.283 100.713,362.557 100.38,362.56L100.38,362.58ZM142.25,360.53C142.064,360.529 141.887,360.445 141.77,360.3C141.684,360.193 141.638,360.061 141.638,359.924C141.638,359.739 141.724,359.564 141.87,359.45C144.158,357.601 146.207,355.474 147.97,353.12C148.086,352.96 148.272,352.866 148.47,352.866C148.81,352.866 149.089,353.145 149.089,353.485C149.089,353.616 149.047,353.744 148.97,353.85C147.15,356.286 145.03,358.484 142.66,360.39C142.545,360.484 142.399,360.534 142.25,360.53ZM149.74,352.26C149.622,352.262 149.507,352.227 149.41,352.16C149.236,352.05 149.13,351.858 149.13,351.652C149.13,351.534 149.165,351.418 149.23,351.32C152.605,346.176 154.564,340.232 154.91,334.09C154.928,333.769 155.198,333.514 155.52,333.514C155.855,333.514 156.131,333.79 156.131,334.125C156.131,334.137 156.131,334.148 156.13,334.16C155.766,340.518 153.738,346.671 150.25,352C150.135,352.167 149.943,352.265 149.74,352.26ZM87.11,346.8C86.867,346.797 86.648,346.652 86.55,346.43C85.357,343.635 84.517,340.703 84.05,337.7L84.05,337.57C84.002,337.241 84.232,336.931 84.56,336.88C84.592,336.875 84.624,336.872 84.656,336.872C84.954,336.872 85.209,337.095 85.25,337.39L85.25,337.51C85.7,340.43 86.513,343.282 87.67,346C87.801,346.307 87.657,346.668 87.35,346.8C87.271,346.819 87.189,346.819 87.11,346.8ZM84.28,330.64C83.949,330.619 83.693,330.331 83.71,330C84.082,323.645 86.12,317.498 89.62,312.18C89.731,312.01 89.92,311.907 90.123,311.907C90.243,311.907 90.361,311.943 90.46,312.01C90.739,312.192 90.82,312.57 90.64,312.85C87.257,317.988 85.287,323.928 84.93,330.07C84.91,330.389 84.641,330.641 84.321,330.641C84.307,330.641 84.294,330.641 84.28,330.64ZM154.55,326.77L155.15,326.68L154.54,326.73C154.094,323.838 153.288,321.012 152.14,318.32C152.115,318.252 152.102,318.18 152.102,318.108C152.102,317.773 152.377,317.498 152.712,317.498C152.945,317.498 153.158,317.631 153.26,317.84C154.445,320.619 155.278,323.535 155.74,326.52L155.15,326.68L154.55,326.77ZM151.76,316.66C151.532,316.662 151.322,316.533 151.22,316.33C148.444,310.837 144.274,306.168 139.13,302.79C139.007,302.675 138.938,302.514 138.938,302.345C138.938,302.011 139.213,301.735 139.548,301.735C139.635,301.735 139.721,301.754 139.8,301.79C145.123,305.278 149.435,310.107 152.3,315.79C152.345,315.876 152.369,315.972 152.369,316.07C152.369,316.3 152.237,316.51 152.03,316.61C151.945,316.646 151.853,316.663 151.76,316.66ZM91.38,311.29C91.247,311.29 91.118,311.248 91.01,311.17C90.745,310.969 90.691,310.587 90.89,310.32C92.717,307.889 94.84,305.695 97.21,303.79C97.319,303.702 97.455,303.654 97.595,303.654C97.93,303.654 98.206,303.93 98.206,304.265C98.206,304.449 98.123,304.624 97.98,304.74C95.684,306.579 93.628,308.699 91.86,311.05C91.747,311.201 91.569,311.29 91.38,311.29ZM103.87,300.84C103.537,300.838 103.264,300.563 103.264,300.23C103.264,300.004 103.39,299.795 103.59,299.69C106.964,297.998 110.581,296.841 114.31,296.26C116.847,295.87 119.417,295.742 121.98,295.88C122.311,295.901 122.567,296.189 122.55,296.52C122.546,296.841 122.281,297.102 121.96,297.102C121.943,297.102 121.927,297.101 121.91,297.1C115.768,296.761 109.642,298.029 104.14,300.78C104.055,300.819 103.963,300.839 103.87,300.84ZM132.87,299.47C132.797,299.484 132.723,299.484 132.65,299.47C129.912,298.4 127.049,297.681 124.13,297.33C123.835,297.283 123.616,297.026 123.616,296.728C123.616,296.393 123.891,296.118 124.226,296.118C124.244,296.118 124.262,296.118 124.28,296.12C127.302,296.484 130.266,297.23 133.1,298.34C133.409,298.464 133.562,298.82 133.44,299.13C133.332,299.358 133.091,299.494 132.84,299.47L132.87,299.47Z" style="fill:white;fill-opacity:0.5;fill-rule:nonzero;"/>
    </g>
</svg>
