<svg version="1.1" id="Layer_1" xmlns="http://www.w3.org/2000/svg" xmlns:xlink="http://www.w3.org/1999/xlink" x="0px" y="0px" viewBox="0 0 500 500" style="width: 163px;" xml:space="preserve" data-imageid="rocket-launch-1-84" imageName="Rocket Launch 1" class="illustrations_image">
<style type="text/css">
	.st0_rocket-launch-1-84{fill:#00275E;}
	.st1_rocket-launch-1-84{fill:#EB773A;}
	.st2_rocket-launch-1-84{fill:#FFAE46;}
	.st3_rocket-launch-1-84{fill:#FAD374;}
	.st4_rocket-launch-1-84{fill:#68E1FD;}
	.st5_rocket-launch-1-84{opacity:0.61;fill:#363636;enable-background:new    ;}
	.st6_rocket-launch-1-84{opacity:0.29;fill:#363636;enable-background:new    ;}
	.st7_rocket-launch-1-84{opacity:0.61;fill:#606060;enable-background:new    ;}
	.st8_rocket-launch-1-84{fill:#FFFFFF;}
	.st9_rocket-launch-1-84{fill:#00AEE1;}
	.st10_rocket-launch-1-84{fill:#8CC63F;}
</style>
<path id="Base_rocket-launch-1-84" class="st0_rocket-launch-1-84" d="M263.1,397l210.5-114c4.7-2.4,6.5-8.2,4.1-12.9c-0.8-1.6-2.1-2.9-3.7-3.9l-204.1-122&#10;&#9;c-3.2-1.9-7.1-1.9-10.3-0.1L36.9,268.9c-4.6,2.5-6.4,8.3-3.9,12.9c0.9,1.6,2.2,3,3.9,3.9l198.6,111.2&#10;&#9;C244,401.6,254.5,401.7,263.1,397z"/>
<g id="Rocket_rocket-launch-1-84">
	<path class="st1_rocket-launch-1-84" d="M227.5,227.7c0,0-42.6,22.7-52.7,77c0,0,41.5,8.8,97-37.1"/>
	<path class="st2_rocket-launch-1-84" d="M226.9,234.6c0,0-18.2,16.3-23.3,27.8s-11.8,28.3-11.8,28.3s32,2.7,62-15.7S255.3,222.2,226.9,234.6z"/>
	<path class="st3_rocket-launch-1-84" d="M245,228.9c-1.1,1.9-19.8,12.4-23.3,27.6l6.1-4.6c0,0-10.4,14.5-14.8,22.9c0,0,25.3-10.1,24.5-9.5l-7.2,5.4&#10;&#9;&#9;c0,0,19.2-0.4,32.3-12.1c13.1-11.7-4.9-32.1-4.9-32.1L245,228.9z"/>
	<path class="st4_rocket-launch-1-84 targetColor" d="M301.5,228.7c0,0-3.3,21.4-10.4,26.8s-30,22.7-30,22.7l-3.8-5c0,0,15.8-28.2,18.6-40.7&#10;&#9;&#9;S301.5,228.7,301.5,228.7z" style="fill: rgb(47, 143, 246);"/>
	<path class="st5_rocket-launch-1-84" d="M301.5,228.7c0,0-3.3,21.4-10.4,26.8s-30,22.7-30,22.7l-3.8-5c0,0,15.8-28.2,18.6-40.7&#10;&#9;&#9;S301.5,228.7,301.5,228.7z"/>
	<path class="st4_rocket-launch-1-84 targetColor" d="M278.6,198.6c0,0-21.5-2.6-28.6,2.8S220,224,220,224l3.8,5c0,0,31.4-7.6,44.2-6.9&#10;&#9;&#9;C280.7,222.8,278.6,198.6,278.6,198.6z" style="fill: rgb(47, 143, 246);"/>
	<path class="st5_rocket-launch-1-84" d="M278.6,198.6c0,0-21.5-2.6-28.6,2.8S220,224,220,224l3.8,5c0,0,31.4-7.6,44.2-6.9&#10;&#9;&#9;C280.7,222.8,278.6,198.6,278.6,198.6z"/>
	<path class="st4_rocket-launch-1-84 targetColor" d="M382,162.5c5.7-8.9,10.3-18.4,13.7-28.4c0,0-12.5,0.1-31.2,5.7C366,149.4,373.6,157,382,162.5z" style="fill: rgb(47, 143, 246);"/>
	
		<ellipse transform="matrix(0.7971 -0.6039 0.6039 0.7971 -48.6652 233.1506)" class="st4_rocket-launch-1-84 targetColor" cx="322.6" cy="189" rx="13.5" ry="15.3" style="fill: rgb(47, 143, 246);"/>
	<path class="st4_rocket-launch-1-84 targetColor" d="M439.4,100.5c0,0-117.8,29.3-177.7,116c0,0-14.1,15-7.3,23.3s29.4,1.7,29.4,1.7S358.2,220.4,439.4,100.5z" style="fill: rgb(47, 143, 246);"/>
	<path class="st4_rocket-launch-1-84 targetColor" d="M261.7,216.5c0,0-14.8-1.8-19.7,1.9s-20.7,15.7-20.7,15.7l2.6,3.5c0,0,21.7-5.2,30.5-4.8&#10;&#9;&#9;S261.7,216.5,261.7,216.5z" style="fill: rgb(47, 143, 246);"/>
	<path class="st4_rocket-launch-1-84 targetColor" d="M279.6,240.1c0,0-2.3,14.8-7.1,18.5l-20.7,15.7l-2.6-3.5c0,0,10.9-19.4,12.8-28S279.6,240.1,279.6,240.1z" style="fill: rgb(47, 143, 246);"/>
	<path class="st6_rocket-launch-1-84" d="M261.7,216.5c0,0-14.8-1.8-19.7,1.9s-20.7,15.7-20.7,15.7l2.6,3.5c0,0,21.7-5.2,30.5-4.8&#10;&#9;&#9;S261.7,216.5,261.7,216.5z"/>
	<path class="st6_rocket-launch-1-84" d="M279.6,240.1c0,0-2.3,14.8-7.1,18.5l-20.7,15.7l-2.6-3.5c0,0,10.9-19.4,12.8-28S279.6,240.1,279.6,240.1z"/>
	<path class="st4_rocket-launch-1-84 targetColor" d="M382.1,121.6c0,0-0.4,19.9,20.7,27.3l-12.2,13.9c0,0-26.5-14.9-22.4-34.4L382.1,121.6z" style="fill: rgb(47, 143, 246);"/>
	<path class="st4_rocket-launch-1-84 targetColor" d="M306.5,167.8c0,0,0.2,33.7,31.7,43.3l-23.4,16c0,0-33.8-11.7-27.5-41.7L306.5,167.8z" style="fill: rgb(47, 143, 246);"/>
	<circle class="st4_rocket-launch-1-84 targetColor" cx="360.5" cy="159.1" r="4.8" style="fill: rgb(47, 143, 246);"/>
	<circle class="st4_rocket-launch-1-84 targetColor" cx="338.3" cy="176" r="12.4" style="fill: rgb(47, 143, 246);"/>
	<path class="st7_rocket-launch-1-84" d="M382.1,121.6c0,0-0.4,19.9,20.7,27.3l-12.2,13.9c0,0-26.5-14.9-22.4-34.4L382.1,121.6z"/>
	<path class="st7_rocket-launch-1-84" d="M306.5,167.8c0,0,0.2,33.7,31.7,43.3l-23.4,16c0,0-33.8-11.7-27.5-41.7L306.5,167.8z"/>
	<circle class="st7_rocket-launch-1-84" cx="360.5" cy="159.1" r="4.8"/>
	<circle class="st7_rocket-launch-1-84" cx="338.3" cy="176" r="12.4"/>
</g>
<g id="Star_and_Planet_rocket-launch-1-84">
	<path class="st8_rocket-launch-1-84" d="M404.7,249.6c-0.8,0.1-1.4,0.7-1.3,1.5c0.1,0.7,0.6,1.2,1.3,1.3c0.8-0.1,1.4-0.7,1.3-1.5&#10;&#9;&#9;C406,250.2,405.4,249.7,404.7,249.6z"/>
	<path class="st8_rocket-launch-1-84" d="M333.5,305.6v0.9c0.1,0.8,0.7,1.4,1.5,1.3c0.7-0.1,1.2-0.6,1.3-1.3v-0.9c-0.1-0.8-0.7-1.4-1.5-1.3&#10;&#9;&#9;C334.1,304.4,333.6,304.9,333.5,305.6z"/>
	<path class="st8_rocket-launch-1-84" d="M235.1,328v0.9c0.1,0.8,0.7,1.4,1.5,1.3c0.7-0.1,1.2-0.6,1.3-1.3V328c-0.1-0.8-0.7-1.4-1.5-1.3&#10;&#9;&#9;C235.7,326.8,235.1,327.3,235.1,328z"/>
	<path class="st8_rocket-launch-1-84" d="M326.9,259.5c-0.8,0.1-1.4,0.7-1.3,1.5c0.1,0.7,0.6,1.2,1.3,1.3c0.8-0.1,1.4-0.7,1.3-1.5&#10;&#9;&#9;C328.1,260.1,327.6,259.5,326.9,259.5z"/>
	<path class="st8_rocket-launch-1-84" d="M158.6,256.8c-0.8,0.1-1.4,0.7-1.3,1.5c0.1,0.7,0.6,1.2,1.3,1.3c0.8-0.1,1.4-0.7,1.3-1.5&#10;&#9;&#9;C159.8,257.4,159.3,256.8,158.6,256.8z"/>
	<path class="st8_rocket-launch-1-84" d="M95.4,260.9v0.9c0,0.8,0.6,1.4,1.4,1.4c0.8,0,1.4-0.6,1.4-1.4v-0.9c0-0.8-0.6-1.4-1.4-1.4&#10;&#9;&#9;C96.1,259.5,95.4,260.1,95.4,260.9z"/>
	<path class="st8_rocket-launch-1-84" d="M125.5,305.1c-0.8,0.1-1.4,0.7-1.3,1.5c0.1,0.7,0.6,1.2,1.3,1.3c0.8-0.1,1.4-0.7,1.3-1.5&#10;&#9;&#9;C126.7,305.7,126.2,305.2,125.5,305.1z"/>
	<path class="st8_rocket-launch-1-84" d="M172,225.4c-0.8,0-1.4,0.6-1.4,1.4s0.6,1.4,1.4,1.4s1.4-0.6,1.4-1.4S172.8,225.4,172,225.4z"/>
	<path class="st8_rocket-launch-1-84" d="M241,180.7c-0.8,0.1-1.4,0.7-1.3,1.5c0.1,0.7,0.6,1.2,1.3,1.3c0.8-0.1,1.4-0.7,1.3-1.5&#10;&#9;&#9;C242.2,181.3,241.7,180.8,241,180.7z"/>
	<path class="st8_rocket-launch-1-84" d="M283,356.1c-0.8,0.1-1.4,0.7-1.3,1.5c0.1,0.7,0.6,1.2,1.3,1.3c0.8-0.1,1.4-0.7,1.3-1.5&#10;&#9;&#9;C284.2,356.7,283.7,356.2,283,356.1z"/>
	<path class="st2_rocket-launch-1-84" d="M376.1,277.1c-9,0-9.1,14.1,0,14.1S385.2,277.1,376.1,277.1z"/>
	<path class="st2_rocket-launch-1-84" d="M123.7,269.1c-9,0-9.1,14,0,14S132.8,269.1,123.7,269.1z"/>
	<path class="st9_rocket-launch-1-84" d="M258.5,361.5c-2.7-2.7-7.2-2.8-9.9,0c0,0,0,0,0,0c-1.3,1.3-2,3.1-2.1,5v0.9c0,1.9,0.8,3.7,2.1,5&#10;&#9;&#9;c2.7,2.7,7.2,2.8,9.9,0c0,0,0,0,0,0c1.3-1.3,2-3.1,2.1-5v-0.9C260.5,364.6,259.8,362.9,258.5,361.5z"/>
</g>
<g id="Planet_rocket-launch-1-84">
	<circle class="st4_rocket-launch-1-84 targetColor" cx="129.8" cy="142.8" r="30.6" style="fill: rgb(47, 143, 246);"/>
	<path class="st10_rocket-launch-1-84" d="M154.8,126c5.3-1.3,28.4-6.4,23.5,5c-2,3.9-5.5,6.8-8.8,9.4c-5.3,4.1-10.9,7.9-16.7,11.1&#10;&#9;&#9;c-11.6,6.7-23.8,12.1-36.6,16.2c-6.4,2.2-13.1,3.5-19.9,4c-5.8,0.5-16.1-1.3-14.5-9.1c2-7,9.9-12.5,15.7-16.3&#10;&#9;&#9;c-8.5,7.5-24.1,23.3-1.4,22c12.8-1.4,25.3-6.4,37.2-11.4c9.4-4.1,41.1-19.4,43.4-28.9C176.2,123.4,158.6,125.6,154.8,126L154.8,126&#10;&#9;&#9;z"/>
</g>
</svg>